<svg width="18" height="10" viewBox="0 0 18 10" fill="none" xmlns="http://www.w3.org/2000/svg">
<path d="M1.13433 1.13563C1.04901 1.21568 1.00071 1.32445 1.00002 1.43812C0.99946 1.49454 1.01108 1.55047 1.03418 1.60248C1.05727 1.6545 1.09135 1.7015 1.13433 1.74062L8.67489 8.87353C8.71668 8.91359 8.76648 8.9454 8.82137 8.96711C8.87627 8.98882 8.93518 9 8.99468 9C9.05418 9 9.11308 8.98882 9.16798 8.96711C9.22288 8.9454 9.27267 8.91359 9.31446 8.87353L16.8566 1.74062C16.9009 1.7014 16.9365 1.65415 16.9611 1.60167C16.9857 1.5492 16.9989 1.49257 16.9999 1.43517C17.0009 1.37777 16.9897 1.32076 16.967 1.26754C16.9442 1.21431 16.9104 1.16596 16.8675 1.12537C16.8246 1.08477 16.7734 1.05276 16.7172 1.03123C16.6609 1.0097 16.6006 0.999102 16.54 1.00006C16.4793 1.00102 16.4194 1.01351 16.3639 1.0368C16.3085 1.06009 16.2585 1.0937 16.217 1.13563L8.99468 7.96604L1.7739 1.13563C1.732 1.09575 1.68217 1.0641 1.62729 1.04251C1.57241 1.02091 1.51355 1.0098 1.45411 1.0098C1.39467 1.0098 1.33582 1.02091 1.28094 1.04251C1.22606 1.0641 1.17623 1.09575 1.13433 1.13563Z" fill="#495C81" stroke="#1A41AD"/>
</svg>
