<svg width="15" height="8" viewBox="0 0 15 8" fill="none" xmlns="http://www.w3.org/2000/svg">
<path d="M7.80063 0C2.79948 0 0.735485 3.652 0.650056 3.80743C0.584096 3.92741 0.584096 4.07272 0.650056 4.19257C0.735547 4.34804 2.7994 8 7.80063 8C12.8019 8 14.8658 4.348 14.9512 4.19257C15.0172 4.07259 15.0172 3.92728 14.9512 3.80743C14.8657 3.65196 12.8019 0 7.80063 0ZM7.80063 7.2C3.86748 7.2 1.95006 4.72891 1.4712 4.002C1.95154 3.28583 3.90077 0.8 7.80063 0.8C11.7332 0.8 13.6506 3.27009 14.1301 3.99829C13.6494 4.71457 11.7001 7.2 7.80063 7.2Z" fill="#8D99B0"/>
<path d="M7.80039 1.60059C6.47708 1.60059 5.40039 2.67727 5.40039 4.00059C5.40039 5.3239 6.47708 6.40059 7.80039 6.40059C9.1237 6.40059 10.2004 5.3239 10.2004 4.00059C10.2004 2.67727 9.1237 1.60059 7.80039 1.60059ZM7.80039 5.60059C6.91813 5.60059 6.20039 4.88284 6.20039 4.00059C6.20039 3.11833 6.91813 2.40059 7.80039 2.40059C8.68265 2.40059 9.40039 3.11833 9.40039 4.00059C9.40039 4.88284 8.68265 5.60059 7.80039 5.60059Z" fill="#8D99B0"/>
</svg>
