<svg width="18" height="10" viewBox="0 0 18 10" fill="none" xmlns="http://www.w3.org/2000/svg">
<path d="M16.8657 8.86437C16.951 8.78432 16.9993 8.67555 17 8.56187C17.0005 8.50546 16.9889 8.44953 16.9658 8.39752C16.9427 8.3455 16.9086 8.29849 16.8657 8.25938L9.32511 1.12647C9.28331 1.08641 9.23352 1.0546 9.17863 1.03289C9.12373 1.01118 9.06482 1 9.00532 1C8.94582 1 8.88692 1.01118 8.83202 1.03289C8.77712 1.0546 8.72733 1.08641 8.68554 1.12647L1.14338 8.25938C1.09905 8.2986 1.06353 8.34585 1.0389 8.39833C1.01428 8.4508 1.00107 8.50743 1.00006 8.56483C0.999051 8.62223 1.01026 8.67924 1.03302 8.73246C1.05577 8.78569 1.08962 8.83404 1.13253 8.87463C1.17545 8.91523 1.22656 8.94724 1.28282 8.96877C1.33909 8.9903 1.39936 9.0009 1.46004 8.99994C1.52072 8.99898 1.58059 8.98649 1.63606 8.9632C1.69153 8.93991 1.74149 8.9063 1.78295 8.86437L9.00532 2.03396L16.2261 8.86437C16.268 8.90425 16.3178 8.9359 16.3727 8.95749C16.4276 8.97909 16.4864 8.9902 16.5459 8.9902C16.6053 8.9902 16.6642 8.97909 16.7191 8.95749C16.7739 8.9359 16.8238 8.90425 16.8657 8.86437Z" fill="#495C81" stroke="#495C81"/>
</svg>
