<svg width="23" height="21" viewBox="0 0 23 21" fill="none" xmlns="http://www.w3.org/2000/svg">
<path d="M15.375 1.2666C13.75 1.2666 12.25 2.0266 11.375 3.1666C10.375 2.0266 8.875 1.2666 7.25 1.2666C4.5 1.2666 2.25 3.41994 2.25 6.07994C2.25 13.0466 10.75 18.1133 11.125 18.3666C11.25 18.3666 11.25 18.4933 11.375 18.4933C11.5 18.4933 11.5 18.4933 11.625 18.3666C12 18.1133 20.5 13.0466 20.5 6.07994C20.5 3.41994 18.125 1.2666 15.375 1.2666Z" fill="#FF7364" stroke="#FF7364" stroke-width="0.4"/>
<path d="M16.2052 0.447266C14.3386 0.447266 12.6203 1.26134 11.5267 2.61963C10.4331 1.26134 8.71471 0.447266 6.84815 0.447266C3.62352 0.447266 1 2.88378 1 5.87856C1 13.8556 10.7982 19.6729 11.2155 19.9165C11.3104 19.9721 11.4188 20 11.5268 20C11.6348 20 11.7432 19.9721 11.8381 19.9165C12.2552 19.6728 22.0536 13.8556 22.0536 5.87856C22.0536 2.88378 19.4301 0.447266 16.2054 0.447266H16.2052ZM11.5267 18.8043C9.86868 17.7494 2.16963 12.4919 2.16963 5.87856C2.16963 3.48266 4.26836 1.53352 6.84815 1.53352C8.60585 1.53352 10.1994 2.43628 11.007 3.88927C11.1075 4.07006 11.3079 4.18341 11.5267 4.18341C11.7456 4.18341 11.9459 4.07006 12.0464 3.88927C12.8539 2.43628 14.4474 1.53352 16.2052 1.53352C18.785 1.53352 20.8837 3.48266 20.8837 5.87856C20.8837 12.4919 13.1846 17.749 11.5267 18.8043Z" fill="white" stroke="white" stroke-width="0.4"/>
</svg>
