<svg width="810" height="382" viewBox="0 0 810 382" fill="none" xmlns="http://www.w3.org/2000/svg">
<rect width="810" height="382" fill="#F3F5FA"/>
<path d="M340 194H338.272L335.14 190.094L333.7 191.516V194H332.35V185.306H333.7V189.932L338.272 185.306H339.982L336.13 189.248L340 194ZM348.382 194H347.032V193.01C346.3 193.814 345.34 194.216 344.152 194.216C343.348 194.216 342.64 193.958 342.028 193.442C341.416 192.926 341.11 192.224 341.11 191.336C341.11 190.424 341.41 189.722 342.01 189.23C342.622 188.726 343.336 188.474 344.152 188.474C345.388 188.474 346.348 188.87 347.032 189.662V188.096C347.032 187.52 346.828 187.07 346.42 186.746C346.012 186.422 345.484 186.26 344.836 186.26C343.816 186.26 342.928 186.662 342.172 187.466L341.542 186.53C342.466 185.57 343.624 185.09 345.016 185.09C346.012 185.09 346.822 185.33 347.446 185.81C348.07 186.29 348.382 187.028 348.382 188.024V194ZM344.638 193.244C345.718 193.244 346.516 192.884 347.032 192.164V190.526C346.516 189.806 345.718 189.446 344.638 189.446C344.014 189.446 343.498 189.626 343.09 189.986C342.694 190.334 342.496 190.79 342.496 191.354C342.496 191.906 342.694 192.362 343.09 192.722C343.498 193.07 344.014 193.244 344.638 193.244ZM355.372 194.216C354.148 194.216 353.17 193.706 352.438 192.686V197.312H351.088V185.306H352.438V186.602C352.762 186.146 353.182 185.78 353.698 185.504C354.214 185.228 354.772 185.09 355.372 185.09C356.524 185.09 357.454 185.504 358.162 186.332C358.882 187.148 359.242 188.252 359.242 189.644C359.242 191.036 358.882 192.146 358.162 192.974C357.454 193.802 356.524 194.216 355.372 194.216ZM355.03 193.01C355.882 193.01 356.56 192.698 357.064 192.074C357.568 191.438 357.82 190.628 357.82 189.644C357.82 188.66 357.568 187.856 357.064 187.232C356.56 186.608 355.882 186.296 355.03 186.296C354.514 186.296 354.01 186.434 353.518 186.71C353.038 186.974 352.678 187.298 352.438 187.682V191.606C352.678 192.002 353.038 192.338 353.518 192.614C354.01 192.878 354.514 193.01 355.03 193.01ZM364.323 194H362.973V186.494H360.453V185.306H366.861V186.494H364.323V194ZM369.927 194H368.631V185.306H369.981V191.948L374.535 185.306H375.867V194H374.517V187.232L369.927 194ZM379.913 194H378.563V185.306H379.913V188.924H384.449V185.306H385.799V194H384.449V190.112H379.913V194ZM396.145 194H394.417L391.285 190.094L389.845 191.516V194H388.495V185.306H389.845V189.932L394.417 185.306H396.127L392.275 189.248L396.145 194ZM404.527 194H403.177V193.01C402.445 193.814 401.485 194.216 400.297 194.216C399.493 194.216 398.785 193.958 398.173 193.442C397.561 192.926 397.255 192.224 397.255 191.336C397.255 190.424 397.555 189.722 398.155 189.23C398.767 188.726 399.481 188.474 400.297 188.474C401.533 188.474 402.493 188.87 403.177 189.662V188.096C403.177 187.52 402.973 187.07 402.565 186.746C402.157 186.422 401.629 186.26 400.981 186.26C399.961 186.26 399.073 186.662 398.317 187.466L397.687 186.53C398.611 185.57 399.769 185.09 401.161 185.09C402.157 185.09 402.967 185.33 403.591 185.81C404.215 186.29 404.527 187.028 404.527 188.024V194ZM400.783 193.244C401.863 193.244 402.661 192.884 403.177 192.164V190.526C402.661 189.806 401.863 189.446 400.783 189.446C400.159 189.446 399.643 189.626 399.235 189.986C398.839 190.334 398.641 190.79 398.641 191.354C398.641 191.906 398.839 192.362 399.235 192.722C399.643 193.07 400.159 193.244 400.783 193.244Z" fill="#2D2E31" fill-opacity="0.96"/>
</svg>
