<?xml version="1.0" encoding="utf-8"?>
<!-- Generator: Adobe Illustrator 21.1.0, SVG Export Plug-In . SVG Version: 6.00 Build 0)  -->
<svg version="1.1" id="Слой_1" xmlns="http://www.w3.org/2000/svg" xmlns:xlink="http://www.w3.org/1999/xlink" x="0px" y="0px"
	 viewBox="0 0 239.4 140.5" style="enable-background:new 0 0 239.4 140.5;" xml:space="preserve">
<style type="text/css">
	.st0{fill:#C4C4C4;filter:url(#Adobe_OpacityMaskFilter);}
	.st1{mask:url(#mask0_2_6042);}
	.st2{fill:#FFFFFF;}
	.st3{fill:#FFD9B8;}
	.st4{fill:none;stroke:#4D4D4D;stroke-width:2.3;stroke-miterlimit:10;}
	.st5{fill:#4D4D4D;}
	.st6{fill:none;stroke:#4D4D4D;stroke-width:2.3;stroke-linecap:round;stroke-linejoin:round;stroke-miterlimit:10;}
	.st7{fill:#FF7364;}
	.st8{fill:#FFFFFF;stroke:#FFFFFF;stroke-width:0.4124;stroke-miterlimit:10;}
</style>
<defs>
	<filter id="Adobe_OpacityMaskFilter" filterUnits="userSpaceOnUse" x="-15" y="0" width="254.4" height="140.5">
		<feColorMatrix  type="matrix" values="1 0 0 0 0  0 1 0 0 0  0 0 1 0 0  0 0 0 1 0"/>
	</filter>
</defs>
<mask maskUnits="userSpaceOnUse" x="-15" y="0" width="254.4" height="140.5" id="mask0_2_6042">
	<rect y="-17.1" class="st0" width="328" height="203"/>
</mask>
<g class="st1">
	<path class="st2" d="M218.8,119.9c27.4-27.4,27.4-71.9,0-99.4s-71.9-27.4-99.4,0C92,48,92,92.5,119.4,119.9
		C146.8,147.4,191.3,147.4,218.8,119.9z"/>
	<path class="st3" d="M129.8,64.1c-0.4-0.6-1.2-0.7-1.7-0.2C96.1,94.1,53.6,110.5-2.7,96.7L-15,133.8c66.1,14.3,124.7-4.1,165-42.4
		L129.8,64.1z"/>
	<path class="st2" d="M97,86.6c-5.6,2.7-12.9,6-19,8l14,33c6.3-2.2,16.9-5.9,22-9.6L97,86.6z"/>
	<path class="st4" d="M-14,133.8c66.1,14.2,124.7-4.1,165-42.2"/>
	<path class="st4" d="M97,86.6l16,32"/>
	<path class="st4" d="M77,94.6l15,33"/>
	<path class="st5" d="M-2,96.7l-12,37.4c38.3,8.1,74.5,5,106-6.5l-14.5-33C54.5,102.3,28,104-2,96.7z"/>
	<path class="st4" d="M101.6,95.6c3.6,7.1-0.5,11.6-6.3,14.3c-2.5,1.3-8.4,3.7-8.4,3.7"/>
	<path class="st5" d="M88,99.6c-0.3,1.9,1.1,3.7,3,4c1.9,0.3,3.7-1.1,3.9-3c0.3-1.9-1.1-3.7-3-4C90.1,96.4,88.3,97.7,88,99.6z"/>
	<path class="st2" d="M128.7,97.7h80.7c0.8,0,1.6-0.7,1.6-1.6V44.5c0-0.8-0.7-1.6-1.6-1.6h-80.7c-0.8,0-1.6,0.7-1.6,1.6v51.6
		C127.3,97,127.9,97.7,128.7,97.7z"/>
	<path class="st4" d="M127.3,42.9l40,34.2c1.1,0.9,2.7,0.9,3.8,0l40-34.2"/>
	<path class="st4" d="M159.1,70.5l-31.8,27.3"/>
	<path class="st4" d="M211,97.7l-32-27.4"/>
	<path class="st6" d="M128.7,97.7h80.7c0.8,0,1.6-0.7,1.6-1.6V44.5c0-0.8-0.7-1.6-1.6-1.6h-80.7c-0.8,0-1.6,0.7-1.6,1.6v51.6
		C127.3,97,127.9,97.7,128.7,97.7z"/>
	<path class="st7" d="M210.2,57.4c7.9,0,14.3-6.4,14.3-14.3c0-7.9-6.4-14.3-14.3-14.3s-14.3,6.4-14.3,14.3
		C195.8,51,202.3,57.4,210.2,57.4z"/>
	<path class="st8" d="M210.2,49.7V39.3l-2.9,1.8l-0.7-1.2l3.8-2.3h1.5v12.2H210.2z"/>
	<path class="st3" d="M114.8,103.6c12.4-7.5,6.1-20.3,6.1-20.3s2.3-2.5,7.6-7.7c4.5-4.4,3.8-8.1,2.3-10.3c-0.4-0.6-3-0.9-3.4-0.5
		c-7.8,7.5-14.2,12.5-23.4,18.2L114.8,103.6z"/>
	<path class="st6" d="M-2,96.9c48.7,12,87.1,1.2,117.3-21.5c3.5-2.6,8.8-7,12-9.9c1.2-1.1,3.1-1.1,4.2,0c0.1,0.1,0.3,0.3,0.5,0.5
		c2.1,2.2,0.8,5.7-2.1,9c-5.4,6-8.5,8.7-8.5,8.7s6.5,11.3-4,19"/>
</g>
</svg>
