<svg width="365" height="62" viewBox="0 0 365 62" fill="none" xmlns="http://www.w3.org/2000/svg">
<path fill-rule="evenodd" clip-rule="evenodd" d="M98.4543 40.7708C98.3785 40.6982 98.3185 40.6106 98.278 40.5137C98.2376 40.4167 98.2177 40.3125 98.2194 40.2075V32.751L90.2881 18.8644C90.2415 18.747 90.2078 18.6249 90.1877 18.5002C90.1855 18.4063 90.2037 18.3132 90.241 18.2271C90.2783 18.141 90.3339 18.064 90.4038 18.0015C90.5351 17.8761 90.7091 17.8055 90.8906 17.804H93.9031C94.3275 17.804 94.673 18.0139 94.9397 18.4338L100.556 28.045L106.214 18.4338C106.313 18.2665 106.444 18.1198 106.598 18.0015C106.776 17.8667 106.995 17.797 107.218 17.804H110.23C110.323 17.8016 110.415 17.8178 110.502 17.8517C110.588 17.8856 110.666 17.9366 110.733 18.0015C110.798 18.0666 110.85 18.1444 110.884 18.2301C110.919 18.3159 110.936 18.4077 110.933 18.5002C110.934 18.6285 110.899 18.7545 110.833 18.8644L102.932 32.751V40.2075C102.938 40.3153 102.919 40.423 102.879 40.5232C102.839 40.6234 102.777 40.7136 102.699 40.7879C102.534 40.935 102.318 41.0119 102.097 41.0023H99.016C98.9116 41.0035 98.808 40.9836 98.7115 40.9438C98.615 40.904 98.5275 40.8452 98.4543 40.7708ZM117.154 40.7879C116.961 40.6223 116.812 40.4111 116.72 40.1734L110.423 24.7959C110.397 24.6987 110.386 24.5983 110.39 24.498C110.39 24.4027 110.409 24.3082 110.446 24.2204C110.483 24.1326 110.538 24.0533 110.607 23.9874C110.669 23.9208 110.745 23.8675 110.828 23.8307C110.912 23.7938 111.002 23.7742 111.093 23.773H113.871C114.071 23.761 114.268 23.8166 114.432 23.9309C114.596 24.0451 114.717 24.2114 114.775 24.4027L119.2 35.9678L123.625 24.4027C123.678 24.2349 123.776 24.0852 123.909 23.9704C124.072 23.8326 124.282 23.7621 124.495 23.773H127.273C127.367 23.7706 127.46 23.7885 127.547 23.8255C127.634 23.8626 127.711 23.9178 127.775 23.9874C127.906 24.1248 127.978 24.3081 127.976 24.498C127.98 24.5983 127.969 24.6987 127.943 24.7959L121.683 40.1734C121.438 40.7272 121.036 41.0034 120.478 41.0023H117.923C117.65 41.0202 117.379 40.9446 117.154 40.7879ZM131.754 40.6551C130.86 40.246 130.087 39.6121 129.511 38.8152C128.974 38.0725 128.687 37.1785 128.692 36.2622C128.692 34.7588 129.305 33.5436 130.532 32.6166C131.758 31.6895 133.443 31.0598 135.587 30.7273L140.172 30.0635V29.3691C140.172 28.4194 139.926 27.7017 139.435 27.2161C138.944 26.7305 138.163 26.4871 137.093 26.4859C136.356 26.4859 135.764 26.6187 135.32 26.8842C134.925 27.11 134.559 27.3826 134.23 27.6961L133.679 28.2424C133.653 28.3561 133.589 28.4577 133.498 28.5301C133.407 28.6026 133.293 28.6416 133.177 28.6407H130.566C130.377 28.6419 130.194 28.5706 130.055 28.4415C129.983 28.3744 129.926 28.2923 129.888 28.2009C129.85 28.1095 129.833 28.011 129.837 27.9122C129.859 27.3596 130.133 26.7356 130.658 26.04C131.183 25.3445 131.992 24.7369 133.085 24.2172C134.178 23.6975 135.527 23.4382 137.134 23.4394C139.769 23.4394 141.688 24.0248 142.892 25.1958C144.096 26.3668 144.698 27.9026 144.699 29.8031V40.2092C144.702 40.3128 144.684 40.4159 144.647 40.5126C144.609 40.6092 144.553 40.6976 144.482 40.7725C144.406 40.8506 144.315 40.9116 144.214 40.9515C144.113 40.9914 144.004 41.0093 143.896 41.004H141.11C141.004 41.006 140.899 40.9866 140.801 40.9468C140.703 40.907 140.614 40.8477 140.54 40.7725C140.464 40.6995 140.405 40.6119 140.365 40.515C140.325 40.4181 140.305 40.314 140.307 40.2092V38.9157C139.771 39.661 139.057 40.2597 138.23 40.6568C137.338 41.1107 136.223 41.3376 134.884 41.3376C133.802 41.3491 132.732 41.1158 131.754 40.6551ZM139.033 36.9601C139.815 36.1658 140.206 35.0164 140.206 33.5118V32.8497L136.858 33.3859C134.292 33.783 133.009 34.634 133.01 35.9389C132.999 36.2664 133.075 36.5909 133.231 36.8793C133.387 37.1676 133.617 37.4093 133.897 37.5796C134.533 37.976 135.273 38.175 136.023 38.1515C137.249 38.1515 138.253 37.7543 139.033 36.9601ZM148.565 40.7708C148.489 40.6982 148.429 40.6106 148.388 40.5137C148.348 40.4167 148.328 40.3125 148.33 40.2075V36.8596C148.328 36.7546 148.348 36.6504 148.388 36.5534C148.429 36.4565 148.489 36.3689 148.565 36.2963C148.639 36.2211 148.727 36.1618 148.825 36.122C148.923 36.0822 149.028 36.0627 149.133 36.0648H152.515C152.62 36.0627 152.725 36.0822 152.823 36.122C152.921 36.1618 153.009 36.2211 153.083 36.2963C153.159 36.3689 153.219 36.4565 153.26 36.5534C153.3 36.6504 153.32 36.7546 153.318 36.8596V40.2075C153.323 40.4166 153.244 40.619 153.1 40.7708C153.025 40.8487 152.934 40.9096 152.833 40.9495C152.732 40.9894 152.623 41.0074 152.515 41.0023H149.138C149.032 41.0053 148.925 40.9864 148.826 40.9465C148.727 40.9067 148.638 40.8469 148.563 40.7708H148.565ZM159.013 40.6551C158.119 40.246 157.346 39.6121 156.77 38.8152C156.233 38.0725 155.947 37.1785 155.951 36.2622C155.951 34.7588 156.565 33.5436 157.791 32.6166C159.018 31.6895 160.703 31.0598 162.846 30.7273L167.431 30.0635V29.3691C167.431 28.4194 167.186 27.7017 166.696 27.2161C166.206 26.7305 165.425 26.4871 164.352 26.4859C163.615 26.4859 163.024 26.6187 162.579 26.8842C162.184 27.11 161.819 27.3826 161.49 27.6961L160.938 28.2424C160.912 28.3576 160.847 28.4602 160.754 28.5328C160.661 28.6055 160.546 28.6436 160.428 28.6407H157.818C157.629 28.6419 157.446 28.5706 157.308 28.4415C157.235 28.3744 157.178 28.2923 157.141 28.2009C157.103 28.1095 157.086 28.011 157.09 27.9122C157.111 27.3596 157.385 26.7356 157.91 26.04C158.436 25.3445 159.245 24.7369 160.337 24.2172C161.43 23.6975 162.78 23.4382 164.388 23.4394C167.021 23.4394 168.939 24.0248 170.144 25.1958C171.349 26.3668 171.95 27.902 171.945 29.8014V40.2075C171.948 40.3111 171.93 40.4142 171.892 40.5109C171.855 40.6075 171.799 40.6959 171.727 40.7708C171.652 40.8489 171.56 40.9099 171.459 40.9498C171.358 40.9897 171.25 41.0076 171.142 41.0023H168.371C168.265 41.0045 168.16 40.9851 168.063 40.9453C167.965 40.9055 167.876 40.8461 167.802 40.7708C167.727 40.6982 167.666 40.6106 167.626 40.5137C167.586 40.4167 167.566 40.3125 167.567 40.2075V38.914C167.033 39.6588 166.319 40.2575 165.493 40.6551C164.6 41.109 163.484 41.3359 162.145 41.3359C161.062 41.3487 159.99 41.116 159.01 40.6551H159.013ZM166.293 36.9601C167.072 36.1658 167.463 35.0164 167.464 33.5118V32.8497L164.116 33.3859C161.549 33.783 160.266 34.634 160.268 35.9389C160.257 36.2664 160.333 36.5909 160.489 36.8793C160.645 37.1676 160.874 37.4093 161.154 37.5796C161.79 37.979 162.53 38.181 163.28 38.16C164.508 38.1543 165.512 37.7543 166.293 36.9601ZM175.887 20.7196C175.812 20.6466 175.752 20.5589 175.712 20.462C175.672 20.3651 175.652 20.261 175.654 20.1562V17.7377C175.65 17.6274 175.668 17.5176 175.708 17.4148C175.749 17.3121 175.809 17.2187 175.887 17.1403C175.961 17.0649 176.05 17.0055 176.148 16.9657C176.246 16.9259 176.351 16.9066 176.457 16.9088H179.536C179.647 16.9046 179.757 16.923 179.861 16.9628C179.964 17.0026 180.059 17.0629 180.138 17.1403C180.217 17.2183 180.278 17.3117 180.318 17.4145C180.359 17.5173 180.377 17.6273 180.373 17.7377V20.1562C180.374 20.2627 180.352 20.3681 180.309 20.4653C180.265 20.5625 180.201 20.6492 180.121 20.7196C179.964 20.8702 179.754 20.9533 179.536 20.951H176.457C176.351 20.9533 176.246 20.9339 176.148 20.8941C176.05 20.8543 175.961 20.7949 175.887 20.7196ZM176.021 40.7708C175.945 40.6982 175.885 40.6106 175.845 40.5137C175.805 40.4167 175.785 40.3125 175.786 40.2075V24.5644C175.781 24.4564 175.8 24.3487 175.84 24.2485C175.881 24.1484 175.943 24.0581 176.021 23.984C176.176 23.8416 176.38 23.7648 176.59 23.7695H179.434C179.539 23.7675 179.644 23.7869 179.742 23.8267C179.84 23.8665 179.928 23.9258 180.002 24.001C180.078 24.0737 180.138 24.1612 180.179 24.2582C180.219 24.3551 180.239 24.4594 180.237 24.5644V40.2075C180.239 40.3125 180.219 40.4167 180.179 40.5137C180.138 40.6106 180.078 40.6982 180.002 40.7708C179.928 40.846 179.84 40.9054 179.742 40.9452C179.644 40.985 179.539 41.0044 179.434 41.0023H176.588C176.484 41.003 176.381 40.9829 176.285 40.9431C176.19 40.9034 176.103 40.8448 176.03 40.7708H176.021Z" fill="white"/>
<path d="M3.75461 26.8494C5.82823 26.8494 7.50923 25.1569 7.50923 23.0692C7.50923 20.9815 5.82823 19.2891 3.75461 19.2891C1.681 19.2891 0 20.9815 0 23.0692C0 25.1569 1.681 26.8494 3.75461 26.8494Z" fill="white"/>
<path opacity="0.8" d="M15.0171 17.2102C16.4684 17.2102 17.6449 16.0253 17.6449 14.5636C17.6449 13.1019 16.4684 11.917 15.0171 11.917C13.5657 11.917 12.3892 13.1019 12.3892 14.5636C12.3892 16.0253 13.5657 17.2102 15.0171 17.2102Z" fill="white"/>
<path opacity="0.6" d="M26.2788 17.3899C27.7301 17.3899 28.9067 16.205 28.9067 14.7433C28.9067 13.2816 27.7301 12.0967 26.2788 12.0967C24.8274 12.0967 23.6509 13.2816 23.6509 14.7433C23.6509 16.205 24.8274 17.3899 26.2788 17.3899Z" fill="white"/>
<path opacity="0.8" d="M26.2788 24.5759C27.7301 24.5759 28.9067 23.391 28.9067 21.9293C28.9067 20.4676 27.7301 19.2827 26.2788 19.2827C24.8274 19.2827 23.6509 20.4676 23.6509 21.9293C23.6509 23.391 24.8274 24.5759 26.2788 24.5759Z" fill="white"/>
<path opacity="0.6" d="M37.5395 23.9861C38.9909 23.9861 40.1674 22.8012 40.1674 21.3395C40.1674 19.8778 38.9909 18.6929 37.5395 18.6929C36.0882 18.6929 34.9116 19.8778 34.9116 21.3395C34.9116 22.8012 36.0882 23.9861 37.5395 23.9861Z" fill="white"/>
<path opacity="0.8" d="M37.5395 31.4392C38.9909 31.4392 40.1674 30.2543 40.1674 28.7926C40.1674 27.3309 38.9909 26.146 37.5395 26.146C36.0882 26.146 34.9116 27.3309 34.9116 28.7926C34.9116 30.2543 36.0882 31.4392 37.5395 31.4392Z" fill="white"/>
<path opacity="0.6" d="M60.0639 24.5798C61.5153 24.5798 62.6918 23.3949 62.6918 21.9332C62.6918 20.4716 61.5153 19.2866 60.0639 19.2866C58.6126 19.2866 57.436 20.4716 57.436 21.9332C57.436 23.3949 58.6126 24.5798 60.0639 24.5798Z" fill="white"/>
<path opacity="0.8" d="M48.8017 39.8894C50.2531 39.8894 51.4296 38.7045 51.4296 37.2428C51.4296 35.7811 50.2531 34.5962 48.8017 34.5962C47.3504 34.5962 46.1738 35.7811 46.1738 37.2428C46.1738 38.7045 47.3504 39.8894 48.8017 39.8894Z" fill="white"/>
<path opacity="0.8" d="M60.0639 32.3284C61.5153 32.3284 62.6918 31.1435 62.6918 29.6818C62.6918 28.2201 61.5153 27.0352 60.0639 27.0352C58.6126 27.0352 57.436 28.2201 57.436 29.6818C57.436 31.1435 58.6126 32.3284 60.0639 32.3284Z" fill="white"/>
<path opacity="0.8" d="M71.3237 24.9133C72.775 24.9133 73.9516 23.7284 73.9516 22.2667C73.9516 20.805 72.775 19.6201 71.3237 19.6201C69.8723 19.6201 68.6958 20.805 68.6958 22.2667C68.6958 23.7284 69.8723 24.9133 71.3237 24.9133Z" fill="white"/>
<path opacity="0.8" d="M26.2788 41.2112C27.7301 41.2112 28.9067 40.0263 28.9067 38.5646C28.9067 37.1029 27.7301 35.918 26.2788 35.918C24.8274 35.918 23.6509 37.1029 23.6509 38.5646C23.6509 40.0263 24.8274 41.2112 26.2788 41.2112Z" fill="white"/>
<path opacity="0.8" d="M37.5395 48.6111C38.9909 48.6111 40.1674 47.4262 40.1674 45.9645C40.1674 44.5028 38.9909 43.3179 37.5395 43.3179C36.0882 43.3179 34.9116 44.5028 34.9116 45.9645C34.9116 47.4262 36.0882 48.6111 37.5395 48.6111Z" fill="white"/>
<path opacity="0.6" d="M37.5395 56.0618C38.9909 56.0618 40.1674 54.8768 40.1674 53.4152C40.1674 51.9535 38.9909 50.7686 37.5395 50.7686C36.0882 50.7686 34.9116 51.9535 34.9116 53.4152C34.9116 54.8768 36.0882 56.0618 37.5395 56.0618Z" fill="white"/>
<path d="M15.0168 26.8494C17.0904 26.8494 18.7714 25.1569 18.7714 23.0692C18.7714 20.9815 17.0904 19.2891 15.0168 19.2891C12.9432 19.2891 11.2622 20.9815 11.2622 23.0692C11.2622 25.1569 12.9432 26.8494 15.0168 26.8494Z" fill="white"/>
<path d="M26.2785 34.0256C28.3522 34.0256 30.0332 32.3332 30.0332 30.2455C30.0332 28.1578 28.3522 26.4653 26.2785 26.4653C24.2049 26.4653 22.5239 28.1578 22.5239 30.2455C22.5239 32.3332 24.2049 34.0256 26.2785 34.0256Z" fill="white"/>
<path d="M37.5393 41.1589C39.6129 41.1589 41.2939 39.4665 41.2939 37.3788C41.2939 35.2911 39.6129 33.5986 37.5393 33.5986C35.4657 33.5986 33.7847 35.2911 33.7847 37.3788C33.7847 39.4665 35.4657 41.1589 37.5393 41.1589Z" fill="white"/>
<path d="M48.8015 49.5285C50.8751 49.5285 52.5561 47.8361 52.5561 45.7484C52.5561 43.6607 50.8751 41.9683 48.8015 41.9683C46.7279 41.9683 45.0469 43.6607 45.0469 45.7484C45.0469 47.8361 46.7279 49.5285 48.8015 49.5285Z" fill="white"/>
<path d="M60.0637 42.3464C62.1373 42.3464 63.8183 40.654 63.8183 38.5663C63.8183 36.4786 62.1373 34.7861 60.0637 34.7861C57.9901 34.7861 56.3091 36.4786 56.3091 38.5663C56.3091 40.654 57.9901 42.3464 60.0637 42.3464Z" fill="white"/>
<path d="M71.324 34.4079C73.3976 34.4079 75.0786 32.7155 75.0786 30.6278C75.0786 28.5401 73.3976 26.8477 71.324 26.8477C69.2503 26.8477 67.5693 28.5401 67.5693 30.6278C67.5693 32.7155 69.2503 34.4079 71.324 34.4079Z" fill="white"/>
<path opacity="0.4" d="M26.2791 10.2079C27.5227 10.2079 28.5308 9.19218 28.5308 7.93918C28.5308 6.68617 27.5227 5.67041 26.2791 5.67041C25.0355 5.67041 24.0273 6.68617 24.0273 7.93918C24.0273 9.19218 25.0355 10.2079 26.2791 10.2079Z" fill="white"/>
<path opacity="0.4" d="M37.5393 16.5351C38.783 16.5351 39.7911 15.5193 39.7911 14.2663C39.7911 13.0133 38.783 11.9976 37.5393 11.9976C36.2957 11.9976 35.2876 13.0133 35.2876 14.2663C35.2876 15.5193 36.2957 16.5351 37.5393 16.5351Z" fill="white"/>
<path opacity="0.4" d="M60.0633 16.8329C61.3069 16.8329 62.315 15.8172 62.315 14.5642C62.315 13.3112 61.3069 12.2954 60.0633 12.2954C58.8197 12.2954 57.8115 13.3112 57.8115 14.5642C57.8115 15.8172 58.8197 16.8329 60.0633 16.8329Z" fill="white"/>
<path opacity="0.6" d="M71.3736 17.6862C72.4114 17.6862 73.2527 16.845 73.2527 15.8072C73.2527 14.7695 72.4114 13.9282 71.3736 13.9282C70.3359 13.9282 69.4946 14.7695 69.4946 15.8072C69.4946 16.845 70.3359 17.6862 71.3736 17.6862Z" fill="white"/>
<path opacity="0.3" d="M26.2789 3.77844C27.3167 3.77844 28.1579 2.93261 28.1579 1.88922C28.1579 0.845834 27.3167 0 26.2789 0C25.2412 0 24.3999 0.845834 24.3999 1.88922C24.3999 2.93261 25.2412 3.77844 26.2789 3.77844Z" fill="white"/>
<path opacity="0.3" d="M37.5392 9.83752C38.5769 9.83752 39.4182 8.99169 39.4182 7.9483C39.4182 6.90492 38.5769 6.05908 37.5392 6.05908C36.5014 6.05908 35.6602 6.90492 35.6602 7.9483C35.6602 8.99169 36.5014 9.83752 37.5392 9.83752Z" fill="white"/>
<path opacity="0.4" d="M37.5392 61.9996C38.5769 61.9996 39.4182 61.1538 39.4182 60.1104C39.4182 59.067 38.5769 58.2212 37.5392 58.2212C36.5014 58.2212 35.6602 59.067 35.6602 60.1104C35.6602 61.1538 36.5014 61.9996 37.5392 61.9996Z" fill="white"/>
<path opacity="0.6" d="M26.2789 46.8824C27.3167 46.8824 28.1579 46.0366 28.1579 44.9932C28.1579 43.9498 27.3167 43.104 26.2789 43.104C25.2412 43.104 24.3999 43.9498 24.3999 44.9932C24.3999 46.0366 25.2412 46.8824 26.2789 46.8824Z" fill="white"/>
<path opacity="0.6" d="M15.0167 9.83752C16.0545 9.83752 16.8957 8.99169 16.8957 7.9483C16.8957 6.90492 16.0545 6.05908 15.0167 6.05908C13.979 6.05908 13.1377 6.90492 13.1377 7.9483C13.1377 8.99169 13.979 9.83752 15.0167 9.83752Z" fill="white"/>
<path opacity="0.6" d="M3.80088 17.7999C4.83863 17.7999 5.67989 16.9541 5.67989 15.9107C5.67989 14.8673 4.83863 14.0215 3.80088 14.0215C2.76314 14.0215 1.92188 14.8673 1.92188 15.9107C1.92188 16.9541 2.76314 17.7999 3.80088 17.7999Z" fill="white"/>
<path opacity="0.6" d="M3.73253 32.3077C4.77027 32.3077 5.61153 31.4619 5.61153 30.4185C5.61153 29.3751 4.77027 28.5293 3.73253 28.5293C2.69478 28.5293 1.85352 29.3751 1.85352 30.4185C1.85352 31.4619 2.69478 32.3077 3.73253 32.3077Z" fill="white"/>
<path opacity="0.3" d="M60.0636 9.83752C61.1013 9.83752 61.9426 8.99169 61.9426 7.9483C61.9426 6.90492 61.1013 6.05908 60.0636 6.05908C59.0258 6.05908 58.1846 6.90492 58.1846 7.9483C58.1846 8.99169 59.0258 9.83752 60.0636 9.83752Z" fill="white"/>
<path opacity="0.6" d="M48.8019 32.5167C49.8396 32.5167 50.6809 31.6709 50.6809 30.6275C50.6809 29.5841 49.8396 28.7383 48.8019 28.7383C47.7641 28.7383 46.9229 29.5841 46.9229 30.6275C46.9229 31.6709 47.7641 32.5167 48.8019 32.5167Z" fill="white"/>
<path d="M227.517 41.0597H225.555L223.592 35.947H213.093L211.132 41.0597H209.169L217.288 20.2651H219.4L227.517 41.0597ZM223.029 34.317L218.329 22.1582L213.665 34.317H223.029Z" fill="white"/>
<path d="M237.749 41.059C235.429 41.059 233.551 40.2958 232.114 38.7696C230.678 37.2434 229.961 35.3508 229.963 33.092C229.963 30.8309 230.68 28.944 232.114 27.4313C233.548 25.9187 235.427 25.1606 237.749 25.1572C240.091 25.1572 241.981 26.0147 243.419 27.7298L242.225 28.732C241.738 28.0649 241.082 27.5234 240.318 27.1565C239.554 26.7897 238.705 26.609 237.848 26.6309C236.014 26.6309 234.55 27.2425 233.457 28.4658C232.363 29.689 231.816 31.2311 231.815 33.092C231.815 34.954 232.362 36.5012 233.457 37.7335C234.551 38.9657 236.015 39.583 237.848 39.5853C239.661 39.5853 241.12 38.8742 242.225 37.4519L243.419 38.4559C241.981 40.1901 240.091 41.0578 237.749 41.059Z" fill="white"/>
<path d="M258.097 40.6838H256.446V38.8953C255.112 40.3374 253.375 41.0585 251.236 41.0585C249.859 41.0766 248.524 40.5938 247.485 39.7023C246.405 38.7981 245.865 37.5702 245.865 36.0185C245.865 34.452 246.4 33.2241 247.47 32.3346C248.519 31.4537 249.858 30.98 251.236 31.0022C253.396 31.0022 255.133 31.7232 256.446 33.1653V30.085C256.446 28.9989 256.054 28.1468 255.27 27.5286C254.485 26.9104 253.5 26.6024 252.315 26.6047C250.431 26.6047 248.832 27.3466 247.518 28.8305L246.595 27.7015C247.337 26.8829 248.249 26.232 249.269 25.7931C250.289 25.3542 251.393 25.1378 252.505 25.1586C254.158 25.1586 255.503 25.566 256.541 26.3809C257.578 27.1957 258.097 28.4084 258.097 30.0189V40.6838ZM251.806 39.7752C253.82 39.7752 255.366 39.0852 256.445 37.7052V34.3825C255.342 32.9822 253.795 32.2815 251.806 32.2804C250.558 32.2804 249.546 32.6358 248.772 33.3467C248.394 33.6882 248.095 34.1057 247.895 34.571C247.695 35.0363 247.599 35.5386 247.612 36.0439C247.598 36.5468 247.694 37.0469 247.894 37.5097C248.094 37.9724 248.394 38.3867 248.772 38.7241C249.546 39.4237 250.558 39.7735 251.806 39.7735V39.7752Z" fill="white"/>
<path d="M276.444 40.6936H274.811V38.334C274.238 39.1468 273.485 39.8177 272.61 40.2946C271.704 40.8027 270.679 41.0664 269.639 41.0596C267.648 41.0596 266.042 40.3553 264.821 38.9467C263.601 37.5381 262.99 35.6614 262.99 33.3167C262.99 30.9886 263.606 29.1119 264.838 27.6868C266.07 26.2616 267.671 25.5468 269.64 25.5424C271.776 25.5424 273.5 26.4614 274.813 28.2994V20.2651H276.446L276.444 40.6936ZM269.917 39.6223C270.922 39.6225 271.91 39.358 272.78 38.8556C273.607 38.4162 274.306 37.7731 274.811 36.9878V29.6688C274.311 28.8671 273.612 28.2077 272.78 27.7546C271.913 27.2441 270.924 26.9742 269.917 26.9731C268.315 26.9731 267.048 27.5703 266.115 28.7647C265.181 29.9592 264.714 31.4754 264.713 33.3134C264.713 35.1492 265.18 36.6599 266.115 37.8455C267.049 39.0311 268.317 39.6228 269.917 39.6206V39.6223Z" fill="white"/>
<path d="M287.821 41.059C285.569 41.059 283.722 40.3168 282.279 38.8326C280.837 37.3483 280.115 35.435 280.115 33.0927C280.115 30.8782 280.821 29.0017 282.233 27.4631C282.892 26.7209 283.708 26.1299 284.624 25.7317C285.54 25.3336 286.533 25.138 287.534 25.1587C289.784 25.1587 291.557 25.9269 292.852 27.4631C294.146 28.9994 294.794 30.9076 294.794 33.1877V33.6269H281.93C282.014 35.3417 282.597 36.7734 283.681 37.922C284.764 39.0705 286.186 39.6459 287.947 39.6482C289.985 39.6482 291.663 38.9473 292.979 37.5455L293.84 38.6121C292.247 40.2433 290.241 41.059 287.821 41.059ZM293.107 32.3399C293.088 30.8853 292.566 29.4807 291.626 28.3584C290.661 27.1658 289.283 26.5695 287.494 26.5695C285.816 26.5695 284.484 27.1602 283.496 28.3415C282.533 29.464 281.979 30.8713 281.921 32.3399H293.107Z" fill="white"/>
<path d="M319.249 41.059H317.626V30.2031C317.626 27.8486 316.617 26.6708 314.598 26.6696C313.738 26.6912 312.901 26.9581 312.179 27.4406C311.415 27.898 310.767 28.5368 310.291 29.3037V41.059H308.632V30.2031C308.632 27.8486 307.622 26.6708 305.604 26.6696C304.834 26.6696 304.043 26.9318 303.231 27.4562C302.466 27.9365 301.807 28.5765 301.297 29.3349V41.059H299.687V25.5462H301.31V27.8903C301.685 27.271 302.345 26.6609 303.292 26.0601C304.153 25.487 305.154 25.1753 306.179 25.1607C307.282 25.1607 308.166 25.4391 308.833 25.9959C309.48 26.5241 309.94 27.2561 310.144 28.0795C310.601 27.3086 311.298 26.6291 312.235 26.041C313.103 25.4727 314.109 25.1665 315.138 25.1572C317.883 25.1572 319.257 26.731 319.258 29.8784L319.249 41.059Z" fill="white"/>
<path d="M323.03 46.9467L323.312 45.3916C323.73 45.5722 324.18 45.6606 324.633 45.6511C325.659 45.6511 326.424 45.0129 326.927 43.7365L328.117 40.9488L321.705 25.1572H323.528L329.06 38.8327L334.529 25.1572H336.383L328.526 44.2555C327.733 46.2016 326.434 47.1747 324.628 47.1747C324.087 47.1808 323.549 47.104 323.03 46.9467Z" fill="white"/>
<path d="M354.731 15.3711C352.796 15.3711 350.904 15.9809 349.294 17.1234C347.685 18.2658 346.431 19.8897 345.69 21.7895C344.95 23.6894 344.756 25.7799 345.133 27.7968C345.511 29.8137 346.443 31.6663 347.811 33.1204C349.18 34.5745 350.924 35.5647 352.822 35.9659C354.72 36.3671 356.688 36.1612 358.476 35.3742C360.264 34.5873 361.792 33.2546 362.867 31.5448C363.943 29.835 364.517 27.8248 364.517 25.7684C364.517 23.0108 363.486 20.3663 361.651 18.4164C359.815 16.4665 357.326 15.3711 354.731 15.3711ZM358.035 28.1079C358.035 28.913 356.323 29.2786 354.731 29.2786C353.139 29.2786 351.427 28.9184 351.427 28.1079V25.4604L354.545 26.442C354.667 26.4803 354.797 26.4803 354.919 26.442L358.035 25.4604V28.1079ZM360.747 24.1204L359.584 24.4806V27.8666C359.636 27.867 359.686 27.887 359.726 27.9229C359.766 27.9587 359.792 28.0083 359.801 28.0629L360.021 29.4659C360.031 29.5272 360.017 29.59 359.983 29.6406C359.949 29.6911 359.898 29.7254 359.84 29.736H359.803H358.923C358.864 29.736 358.808 29.7114 358.767 29.6674C358.726 29.6235 358.703 29.564 358.703 29.5019C358.701 29.4887 358.701 29.4754 358.703 29.4623L358.923 28.0593C358.931 28.0044 358.957 27.9544 358.997 27.9184C359.037 27.8824 359.088 27.8627 359.14 27.863V24.6211L354.797 25.9881C354.756 26.0007 354.713 26.0007 354.672 25.9881L348.725 24.115C348.68 24.1006 348.64 24.0709 348.612 24.0305C348.584 23.9901 348.568 23.9411 348.568 23.8908C348.568 23.8405 348.584 23.7915 348.612 23.7511C348.64 23.7107 348.68 23.6811 348.725 23.6666L354.672 21.7953C354.713 21.7827 354.756 21.7827 354.797 21.7953L360.743 23.6666C360.789 23.6811 360.829 23.7107 360.857 23.7511C360.885 23.7915 360.9 23.8405 360.9 23.8908C360.9 23.9411 360.885 23.9901 360.857 24.0305C360.829 24.0709 360.789 24.1006 360.743 24.115L360.747 24.1204Z" fill="white"/>
<path d="M196.937 15.3711H195.713V42.2817H196.937V15.3711Z" fill="white"/>
</svg>
