<svg width="43" height="24" viewBox="0 0 43 24" fill="none" xmlns="http://www.w3.org/2000/svg">
<path d="M24.6807 11.6696C24.6807 13.4267 23.2563 14.8511 21.4992 14.8511C19.7418 14.8511 18.3174 13.4267 18.3174 11.6696C18.3174 9.91223 19.7418 8.48779 21.4992 8.48779C23.2563 8.48779 24.6807 9.91223 24.6807 11.6696Z" fill="#8A8A8A"/>
<path d="M42.9301 11.4655C37.2126 4.07168 29.6002 0 21.5002 0C13.4001 0 5.78919 4.07168 0.0679374 11.4655C-0.0226458 11.587 -0.0226458 11.7538 0.0679374 11.8753C5.78934 19.2691 13.3986 23.3408 21.5002 23.3408C29.6018 23.3408 37.2119 19.2694 42.9293 11.8753C43.0235 11.755 43.0235 11.5861 42.9296 11.4655H42.9301ZM21.5002 20.2973C19.2119 20.2976 17.0172 19.3888 15.3988 17.7707C13.7806 16.1528 12.8715 13.9584 12.8715 11.6699C12.8712 9.38159 13.7803 7.18692 15.3981 5.56875C17.0163 3.95059 19.211 3.04176 21.4992 3.04176C23.7875 3.04176 25.9822 3.95089 27.6 5.56906C29.2182 7.18723 30.127 9.3819 30.127 11.6702C30.124 13.9572 29.2143 16.1498 27.597 17.767C25.9798 19.3843 23.7872 20.2944 21.5002 20.2973Z" fill="#8A8A8A"/>
</svg>
