<svg width="804" height="374" viewBox="0 0 804 374" fill="none" xmlns="http://www.w3.org/2000/svg">
<rect width="804" height="374" fill="#F3F5FA"/>
<path d="M380.674 193.264C379.178 193.264 377.983 192.641 377.088 191.394V197.048H375.438V182.374H377.088V183.958C377.484 183.401 377.997 182.953 378.628 182.616C379.259 182.279 379.941 182.11 380.674 182.11C382.082 182.11 383.219 182.616 384.084 183.628C384.964 184.625 385.404 185.975 385.404 187.676C385.404 189.377 384.964 190.734 384.084 191.746C383.219 192.758 382.082 193.264 380.674 193.264ZM380.256 191.79C381.297 191.79 382.126 191.409 382.742 190.646C383.358 189.869 383.666 188.879 383.666 187.676C383.666 186.473 383.358 185.491 382.742 184.728C382.126 183.965 381.297 183.584 380.256 183.584C379.625 183.584 379.009 183.753 378.408 184.09C377.821 184.413 377.381 184.809 377.088 185.278V190.074C377.381 190.558 377.821 190.969 378.408 191.306C379.009 191.629 379.625 191.79 380.256 191.79ZM388.842 180.856C388.549 180.856 388.292 180.753 388.072 180.548C387.852 180.328 387.742 180.064 387.742 179.756C387.742 179.448 387.852 179.184 388.072 178.964C388.292 178.744 388.549 178.634 388.842 178.634C389.15 178.634 389.414 178.744 389.634 178.964C389.854 179.184 389.964 179.448 389.964 179.756C389.964 180.064 389.854 180.328 389.634 180.548C389.414 180.753 389.15 180.856 388.842 180.856ZM389.678 193H388.028V182.374H389.678V193ZM397.655 193.264C396.086 193.264 394.81 192.736 393.827 191.68C392.845 190.609 392.353 189.275 392.353 187.676C392.353 186.077 392.845 184.75 393.827 183.694C394.81 182.638 396.086 182.11 397.655 182.11C399.298 182.11 400.596 182.726 401.549 183.958L400.449 184.97C399.775 184.046 398.873 183.584 397.743 183.584C396.629 183.584 395.734 183.965 395.059 184.728C394.399 185.491 394.069 186.473 394.069 187.676C394.069 188.879 394.399 189.869 395.059 190.646C395.734 191.409 396.629 191.79 397.743 191.79C398.858 191.79 399.76 191.328 400.449 190.404L401.549 191.416C400.596 192.648 399.298 193.264 397.655 193.264Z" fill="black"/>
</svg>
