<svg width="35" height="22" viewBox="0 0 35 22" fill="none" xmlns="http://www.w3.org/2000/svg">
<path d="M34.9194 13.8307C34.4137 10.4329 31.5356 8.01145 28.2685 7.85523C29.0853 4.80894 31.0689 3.59823 33.4803 2.89524C33.7137 2.81713 33.6748 2.5828 33.6748 2.5828L33.2858 0.161384C33.2858 0.161384 33.2469 -0.0338908 32.9358 0.00516431C24.6125 0.942486 18.9729 7.30846 20.0231 15.0414C20.9954 20.3919 25.157 22.4618 29.0075 21.9151C32.858 21.2902 35.5028 17.6971 34.9194 13.8307ZM8.35496 7.85523C9.13283 4.80894 11.1942 3.59823 13.5667 2.89524C13.8001 2.81713 13.7612 2.5828 13.7612 2.5828L13.4111 0.161384C13.4111 0.161384 13.3722 -0.0338908 13.0611 0.00516431C4.73784 0.903431 -0.862854 7.26941 0.109489 15.0023C1.12073 20.3919 5.32125 22.4618 9.13283 21.9151C12.9833 21.2902 15.6281 17.6971 15.0058 13.8307C14.5002 10.3938 11.6609 7.9724 8.35496 7.85523Z" fill="#103EB4"/>
</svg>
