<svg width="10" height="12" viewBox="0 0 10 12" fill="none" xmlns="http://www.w3.org/2000/svg">
<path fill-rule="evenodd" clip-rule="evenodd" d="M2.39554 1.74522C3.96585 0.539728 6.21821 0.825238 7.4237 2.39554C8.5816 3.87068 8.3754 5.96442 7.02715 7.21749L9.59675 10.5326C9.66019 10.6119 9.64433 10.7229 9.56502 10.7864L9.34296 10.9609C9.26365 11.0243 9.15262 11.0084 9.08917 10.9291L6.51958 7.61404C4.981 8.61332 2.90312 8.26437 1.74522 6.78923C0.539728 5.21892 0.825238 2.96656 2.39554 1.74522ZM2.71278 2.15762C4.04516 1.12661 5.98028 1.3804 7.01129 2.71278C8.05816 4.06102 7.80438 5.98028 6.472 7.01129C5.12375 8.05816 3.20449 7.80438 2.15762 6.472C1.12661 5.12375 1.3804 3.20449 2.71278 2.15762Z" fill="#2B2C2E" stroke="#2B2C2E" stroke-width="0.3"/>
</svg>
