<svg width="30" height="25" viewBox="0 0 30 25" fill="none" xmlns="http://www.w3.org/2000/svg">
<path d="M0.5078 24.9338C0.815882 25.0645 1.17184 24.9982 1.4125 24.7661C5.51122 20.808 10.9011 18.5471 16.6666 18.3477V24.1666C16.6666 24.5035 16.8696 24.8077 17.1809 24.9367C17.2839 24.9795 17.3922 25 17.4997 25C17.7164 25 17.9296 24.9153 18.0891 24.7561L29.7557 13.0894C30.0814 12.7641 30.0814 12.2363 29.7557 11.911L18.0891 0.244298C17.851 0.00573838 17.492 -0.0656428 17.1811 0.0636312C16.8695 0.192215 16.6666 0.49634 16.6666 0.833276V6.68638C7.40234 7.12235 0 14.7965 0 24.1668C0 24.5011 0.199963 24.8031 0.507574 24.9339L0.5078 24.9338ZM17.5 8.33316C17.9603 8.33316 18.3333 7.96021 18.3333 7.49982V2.84511L27.988 12.4999L18.3333 22.1547V17.5C18.3333 17.0396 17.9603 16.6666 17.5 16.6666C11.6852 16.6666 6.18039 18.62 1.78755 22.2054C2.75642 14.3964 9.43334 8.33334 17.5 8.33334V8.33316Z" fill="#8D99B0"/>
</svg>
