<svg width="123" height="21" viewBox="0 0 123 21" fill="none" xmlns="http://www.w3.org/2000/svg">
<path d="M21.3731 7.53162H13.9199L11.6167 0.442929C11.531 0.178712 11.2849 0 11.0071 0C10.7293 0 10.4832 0.178708 10.3975 0.443108L8.09428 7.53179H0.641063C0.363249 7.53179 0.117117 7.7105 0.0314333 7.9749C-0.0544333 8.23912 0.0396622 8.52839 0.264345 8.6917L6.29378 13.0725L3.99077 20.1607C3.9049 20.4249 3.999 20.7142 4.22368 20.8775C4.44837 21.0408 4.75285 21.0408 4.97716 20.8775L11.0071 16.4962L17.0369 20.877C17.1493 20.9585 17.2817 20.9995 17.4137 20.9995C17.5457 20.9995 17.6781 20.9587 17.7904 20.877C18.0151 20.7136 18.1092 20.4244 18.0233 20.1602L15.7203 13.0719L21.7498 8.69151C21.9744 8.52819 22.0685 8.23892 21.9827 7.97472C21.897 7.71032 21.6509 7.53162 21.3731 7.53162ZM14.5899 12.3085C14.3652 12.4719 14.2711 12.7611 14.357 13.0253L16.1942 18.6797L11.3838 15.1851C11.2715 15.1035 11.1391 15.0626 11.0071 15.0626C10.8751 15.0626 10.7427 15.1033 10.6303 15.1851L5.81998 18.6798L7.65716 13.0255C7.74303 12.7613 7.64893 12.472 7.42425 12.3087L2.61435 8.81394H8.55998C8.83779 8.81394 9.08392 8.63523 9.16961 8.37083L11.007 2.716L12.8445 8.37083C12.9302 8.63505 13.1764 8.81394 13.4541 8.81394H19.3998L14.5899 12.3085Z" fill="#FF7364"/>
<path d="M10.92 1.68018L8.82001 7.98018L1.26001 8.40018L7.14001 13.0202L5.04001 20.1602L10.92 15.9602L17.64 20.1602L15.12 12.6002L21 7.98018H13.44L10.92 1.68018Z" fill="#FF7364"/>
<path d="M36.5399 1.68018L34.4399 7.98018L26.8799 8.40018L32.7599 13.0202L30.6599 20.1602L36.5399 15.9602L43.2599 20.1602L40.7399 12.6002L46.6199 7.98018H39.0599L36.5399 1.68018Z" fill="#FF7364"/>
<path d="M60.9 1.68018L58.8 7.98018L51.24 8.40018L57.12 13.0202L55.02 20.1602L60.9 15.9602L67.62 20.1602L65.1 12.6002L70.98 7.98018H63.42L60.9 1.68018Z" fill="#FF7364"/>
<path d="M86.0999 1.68018L83.9999 7.98018L76.4399 8.40018L82.3199 13.0202L80.2199 20.1602L86.0999 15.9602L92.8199 20.1602L90.2999 12.6002L96.1799 7.98018H88.6199L86.0999 1.68018Z" fill="#FF7364"/>
<path d="M46.5733 7.53162H39.1201L36.8169 0.44293C36.7312 0.178712 36.4851 0 36.2073 0C35.9295 0 35.6834 0.178708 35.5977 0.443108L33.2945 7.5318H25.8413C25.5634 7.5318 25.3173 7.7105 25.2316 7.9749C25.1458 8.23912 25.2399 8.52839 25.4645 8.6917L31.494 13.0725L29.191 20.1607C29.1051 20.4249 29.1992 20.7142 29.4239 20.8775C29.6486 21.0408 29.953 21.0408 30.1774 20.8775L36.2072 16.4962L42.2371 20.877C42.3495 20.9585 42.4819 20.9995 42.6139 20.9995C42.7459 20.9995 42.8783 20.9587 42.9906 20.877C43.2153 20.7136 43.3094 20.4244 43.2235 20.1602L40.9205 13.0719L46.95 8.69151C47.1746 8.52819 47.2687 8.23892 47.1829 7.97472C47.0972 7.71032 46.851 7.53161 46.5732 7.53161L46.5733 7.53162ZM39.7901 12.3085C39.5654 12.4719 39.4713 12.7611 39.5572 13.0253L41.3944 18.6797L36.584 15.1851C36.4717 15.1035 36.3393 15.0626 36.2073 15.0626C36.0753 15.0626 35.9429 15.1033 35.8305 15.1851L31.0202 18.6798L32.8574 13.0255C32.9432 12.7613 32.8491 12.472 32.6244 12.3087L27.8145 8.81394H33.7602C34.038 8.81394 34.2841 8.63523 34.3698 8.37083L36.2072 2.716L38.0447 8.37083C38.1304 8.63505 38.3765 8.81394 38.6543 8.81394H44.6L39.7901 12.3085Z" fill="#FF7364"/>
<path d="M71.7731 7.53162H64.3198L62.0166 0.44293C61.931 0.178712 61.6848 0 61.407 0C61.1292 0 60.8831 0.178708 60.7974 0.443108L58.4942 7.5318H51.041C50.7632 7.5318 50.517 7.7105 50.4313 7.9749C50.3455 8.23912 50.4396 8.52839 50.6642 8.6917L56.6937 13.0725L54.3907 20.1607C54.3048 20.4249 54.3989 20.7142 54.6236 20.8775C54.8483 21.0408 55.1528 21.0408 55.3771 20.8775L61.407 16.4962L67.4368 20.877C67.5492 20.9585 67.6816 20.9995 67.8136 20.9995C67.9456 20.9995 68.078 20.9587 68.1903 20.877C68.415 20.7136 68.5091 20.4244 68.4232 20.1602L66.1202 13.0719L72.1497 8.69151C72.3744 8.52819 72.4684 8.23892 72.3826 7.97472C72.2969 7.71032 72.0507 7.53161 71.7729 7.53161L71.7731 7.53162ZM64.9898 12.3085C64.7651 12.4719 64.671 12.7611 64.7569 13.0253L66.5941 18.6797L61.7837 15.1851C61.6714 15.1035 61.539 15.0626 61.407 15.0626C61.275 15.0626 61.1426 15.1033 61.0302 15.1851L56.2199 18.6798L58.0571 13.0255C58.1429 12.7613 58.0488 12.472 57.8242 12.3087L53.0142 8.81394H58.9599C59.2377 8.81394 59.4838 8.63523 59.5695 8.37083L61.4069 2.716L63.2444 8.37083C63.3301 8.63505 63.5763 8.81394 63.854 8.81394H69.7997L64.9898 12.3085Z" fill="#FF7364"/>
<path d="M96.9732 7.53162H89.52L87.2168 0.44293C87.1311 0.178712 86.885 0 86.6072 0C86.3294 0 86.0833 0.178708 85.9976 0.443108L83.6944 7.5318H76.2412C75.9633 7.5318 75.7172 7.7105 75.6315 7.9749C75.5457 8.23912 75.6398 8.52839 75.8644 8.6917L81.8939 13.0725L79.5909 20.1607C79.505 20.4249 79.5991 20.7142 79.8238 20.8775C80.0485 21.0408 80.3529 21.0408 80.5773 20.8775L86.6071 16.4962L92.637 20.877C92.7494 20.9585 92.8818 20.9995 93.0138 20.9995C93.1458 20.9995 93.2782 20.9587 93.3905 20.877C93.6152 20.7136 93.7093 20.4244 93.6234 20.1602L91.3204 13.0719L97.3499 8.69151C97.5745 8.52819 97.6686 8.23892 97.5828 7.97472C97.4971 7.71032 97.2509 7.53161 96.9731 7.53161L96.9732 7.53162ZM90.19 12.3085C89.9653 12.4719 89.8712 12.7611 89.9571 13.0253L91.7943 18.6797L86.9839 15.1851C86.8716 15.1035 86.7392 15.0626 86.6072 15.0626C86.4752 15.0626 86.3428 15.1033 86.2304 15.1851L81.4201 18.6798L83.2573 13.0255C83.3431 12.7613 83.249 12.472 83.0243 12.3087L78.2144 8.81394H84.1601C84.4379 8.81394 84.684 8.63523 84.7697 8.37083L86.6071 2.716L88.4446 8.37083C88.5303 8.63505 88.7764 8.81394 89.0542 8.81394H94.9999L90.19 12.3085Z" fill="#FF7364"/>
<path d="M122.173 7.53162H114.72L112.417 0.44293C112.331 0.178712 112.085 0 111.807 0C111.529 0 111.283 0.178708 111.197 0.443108L108.894 7.5318H101.441C101.163 7.5318 100.917 7.7105 100.831 7.9749C100.745 8.23912 100.839 8.52839 101.064 8.6917L107.094 13.0725L104.791 20.1607C104.705 20.4249 104.799 20.7142 105.023 20.8775C105.248 21.0408 105.553 21.0408 105.777 20.8775L111.807 16.4962L117.837 20.877C117.949 20.9585 118.081 20.9995 118.213 20.9995C118.346 20.9995 118.478 20.9587 118.59 20.877C118.815 20.7136 118.909 20.4244 118.823 20.1602L116.52 13.0719L122.55 8.69151C122.774 8.52819 122.868 8.23892 122.782 7.97472C122.697 7.71032 122.451 7.53161 122.173 7.53161L122.173 7.53162ZM115.39 12.3085C115.165 12.4719 115.071 12.7611 115.157 13.0253L116.994 18.6797L112.184 15.1851C112.071 15.1035 111.939 15.0626 111.807 15.0626C111.675 15.0626 111.542 15.1033 111.43 15.1851L106.62 18.6798L108.457 13.0255C108.543 12.7613 108.449 12.472 108.224 12.3087L103.414 8.81394H109.36C109.638 8.81394 109.884 8.63523 109.969 8.37083L111.807 2.716L113.644 8.37083C113.73 8.63505 113.976 8.81394 114.254 8.81394H120.2L115.39 12.3085Z" fill="#FF7364"/>
</svg>
