<svg width="20" height="20" viewBox="0 0 20 20" fill="none" xmlns="http://www.w3.org/2000/svg">
<path d="M10 0C4.48611 0 0 4.48611 0 10C0 15.5139 4.48611 20 10 20C15.5139 20 20 15.5139 20 10C20 4.48611 15.5139 0 10 0ZM10 18.8889C5.09881 18.8889 1.11111 14.9012 1.11111 10C1.11111 5.09881 5.09881 1.11111 10 1.11111C14.9012 1.11111 18.8889 5.09881 18.8889 10C18.8889 14.9012 14.9012 18.8889 10 18.8889Z" fill="#8D99B0"/>
<path d="M13.889 9.44412H10.5557V3.88856C10.5557 3.58164 10.3071 3.33301 10.0001 3.33301C9.69322 3.33301 9.44458 3.58164 9.44458 3.88856V9.99967C9.44458 10.3066 9.69322 10.5552 10.0001 10.5552H13.889C14.1959 10.5552 14.4446 10.3066 14.4446 9.99967C14.4446 9.69275 14.1959 9.44412 13.889 9.44412Z" fill="#8D99B0"/>
</svg>
