<svg width="21" height="18" viewBox="0 0 21 18" fill="none" xmlns="http://www.w3.org/2000/svg">
<path d="M15.339 3.04004H1.333C0.598 3.04004 0 3.63804 0 4.37304V13.35C0 14.085 0.598 14.683 1.333 14.683H2.756C2.884 14.683 3.002 14.752 3.065 14.863L4.045 16.582C4.22 16.889 4.535 17.077 4.889 17.084C4.896 17.084 4.903 17.084 4.911 17.084C5.256 17.084 5.57 16.911 5.753 16.617L6.862 14.849C6.928 14.745 7.041 14.682 7.164 14.682H15.34C16.075 14.682 16.673 14.084 16.673 13.349V4.37304C16.672 3.63804 16.074 3.04004 15.339 3.04004ZM16.033 13.35C16.033 13.733 15.722 14.044 15.339 14.044H7.164C6.819 14.044 6.504 14.218 6.321 14.51L5.212 16.278C5.116 16.433 4.965 16.446 4.903 16.445C4.842 16.444 4.691 16.423 4.601 16.265L3.621 14.546C3.444 14.236 3.113 14.043 2.756 14.043H1.333C0.95 14.043 0.639 13.732 0.639 13.349V4.37304C0.639 3.99004 0.95 3.67904 1.333 3.67904H15.339C15.722 3.67904 16.033 3.99004 16.033 4.37304V13.35Z" fill="#8D99B0"/>
<path d="M18.8031 0H4.79711C4.06211 0 3.46411 0.598 3.46411 1.333V1.766C3.46411 1.943 3.60711 2.086 3.78411 2.086C3.96111 2.086 4.10411 1.943 4.10411 1.766V1.333C4.10411 0.95 4.41511 0.639 4.79811 0.639H18.8041C19.1871 0.639 19.4981 0.95 19.4981 1.333V10.31C19.4981 10.693 19.1871 11.004 18.8041 11.004H18.2151C18.0381 11.004 17.8951 11.147 17.8951 11.324C17.8951 11.501 18.0381 11.644 18.2151 11.644H18.8041C19.5391 11.644 20.1371 11.046 20.1371 10.311V1.333C20.1361 0.598 19.5381 0 18.8031 0Z" fill="#8D99B0"/>
<path d="M13.209 5.85498H3.46404C3.28704 5.85498 3.14404 5.99798 3.14404 6.17498C3.14404 6.35198 3.28704 6.49498 3.46404 6.49498H13.21C13.387 6.49498 13.53 6.35198 13.53 6.17498C13.529 5.99798 13.386 5.85498 13.209 5.85498Z" fill="#8D99B0"/>
<path d="M13.209 8.54199H3.46404C3.28704 8.54199 3.14404 8.68499 3.14404 8.86199C3.14404 9.03899 3.28704 9.18199 3.46404 9.18199H13.21C13.387 9.18199 13.53 9.03899 13.53 8.86199C13.529 8.68499 13.386 8.54199 13.209 8.54199Z" fill="#8D99B0"/>
<path d="M13.209 11.228H3.46404C3.28704 11.228 3.14404 11.371 3.14404 11.548C3.14404 11.725 3.28704 11.868 3.46404 11.868H13.21C13.387 11.868 13.53 11.725 13.53 11.548C13.529 11.371 13.386 11.228 13.209 11.228Z" fill="#8D99B0"/>
</svg>
