<svg width="10" height="10" viewBox="0 0 10 10" fill="none" xmlns="http://www.w3.org/2000/svg">
<path d="M2.39919 2.68467e-05C1.76579 2.68467e-05 1.23315 0.441174 1.07306 1.03275H0.358735C0.263545 1.03235 0.172103 1.07048 0.104743 1.13853C0.0374556 1.20665 -0.000172914 1.29904 0.00014547 1.39529C0.000544082 1.49114 0.0384923 1.58281 0.105779 1.65028C0.172987 1.71776 0.264031 1.75549 0.358752 1.75508H1.07173C1.2307 2.34827 1.7646 2.79136 2.3992 2.79136C3.02742 2.79136 3.55688 2.3569 3.72182 1.77275L9.64356 1.75509H9.64348C9.73827 1.75493 9.829 1.71664 9.89588 1.64884C9.96269 1.58096 10.0002 1.48897 10 1.39319C9.99976 1.29766 9.96221 1.20607 9.8954 1.13851C9.82852 1.07095 9.73803 1.0329 9.64347 1.03274L3.73153 1.05039C3.57767 0.449712 3.03905 0 2.3992 0L2.39919 2.68467e-05ZM2.39919 0.722373C2.77133 0.722373 3.06537 1.01905 3.06537 1.39529C3.06537 1.77161 2.77135 2.06895 2.39919 2.06895C2.02703 2.06895 1.73375 1.77163 1.73375 1.39529C1.73375 1.01895 2.02705 0.722373 2.39919 0.722373ZM6.2149 3.4904C5.57096 3.4904 5.02908 3.93937 4.86923 4.54144H0.358593C0.263722 4.54111 0.172597 4.57892 0.105396 4.64648C0.0381086 4.71412 0.000241332 4.80603 5.03669e-07 4.90197C-0.000158954 4.99806 0.0375494 5.09037 0.104916 5.15825C0.172203 5.22622 0.263486 5.26419 0.358603 5.26378H4.86986C5.03018 5.86568 5.57142 6.31554 6.21478 6.31554C6.85814 6.31554 7.3994 5.86568 7.55971 5.26378H9.64329C9.73808 5.26362 9.8288 5.22541 9.89569 5.15753C9.9625 5.08965 9.99997 4.99774 9.99981 4.90196C9.99957 4.80643 9.96202 4.71485 9.89521 4.64728C9.82833 4.57973 9.73784 4.54167 9.64328 4.54143H7.56032C7.40047 3.93937 6.85858 3.4904 6.21465 3.4904L6.2149 3.4904ZM6.2149 4.21275C6.59661 4.21275 6.89852 4.51595 6.89852 4.90197C6.89852 5.28799 6.59661 5.59328 6.2149 5.59328C5.83318 5.59328 5.53127 5.28797 5.53127 4.90197C5.53127 4.51597 5.83318 4.21275 6.2149 4.21275ZM3.43924 7.17272C2.79611 7.17272 2.25416 7.62216 2.09358 8.22375H0.358633C0.263443 8.22343 0.172001 8.26148 0.104641 8.3296C0.0373536 8.39764 -0.000274904 8.49011 4.34796e-05 8.58636C0.000442092 8.68214 0.0383903 8.77388 0.105677 8.84135C0.172885 8.90883 0.263928 8.94648 0.35865 8.94608H2.09288C2.25241 9.54919 2.795 10 3.43918 10C4.08341 10 4.6253 9.54917 4.78484 8.94608H9.64346C9.73785 8.94592 9.82834 8.90802 9.89506 8.84055C9.96187 8.77315 9.99958 8.68181 9.99998 8.58636C10.0003 8.49043 9.96299 8.39836 9.8961 8.33032C9.82921 8.26228 9.73833 8.22399 9.64345 8.22374H4.78422C4.62366 7.62224 4.08241 7.17271 3.4393 7.17271L3.43924 7.17272ZM3.43924 7.89506C3.82096 7.89506 4.12287 8.20037 4.12287 8.58637C4.12287 8.97237 3.82096 9.27767 3.43924 9.27767C3.05753 9.27767 2.75561 8.97237 2.75561 8.58637C2.75561 8.20037 3.05753 7.89506 3.43924 7.89506Z" fill="#2B2C2E"/>
</svg>
