<svg width="13" height="13" viewBox="0 0 13 13" fill="none" xmlns="http://www.w3.org/2000/svg">
<path d="M4.05737 13L8.94263 13C9.4755 13.0002 10.0032 12.8954 10.4955 12.6915C10.9879 12.4877 11.4352 12.1888 11.812 11.812C12.1888 11.4352 12.4877 10.9879 12.6915 10.4955C12.8954 10.0032 13.0002 9.4755 13 8.94263L13 4.05737C13.0002 3.5245 12.8954 2.99681 12.6915 2.50447C12.4877 2.01212 12.1888 1.56477 11.812 1.18797C11.4352 0.811177 10.9879 0.51232 10.4955 0.308483C10.0032 0.104645 9.4755 -0.000179599 8.94263 -3.54706e-07L4.05737 -7.8179e-07C3.5245 -0.000180119 2.99681 0.104644 2.50447 0.308482C2.01213 0.51232 1.56477 0.811176 1.18798 1.18797C0.811178 1.56477 0.512321 2.01212 0.308484 2.50447C0.104646 2.99681 -0.000178462 3.5245 7.8179e-07 4.05737L3.54706e-07 8.94263C-0.000178983 9.4755 0.104645 10.0032 0.308483 10.4955C0.512321 10.9879 0.811177 11.4352 1.18798 11.812C1.56477 12.1888 2.01212 12.4877 2.50447 12.6915C2.99681 12.8954 3.5245 13.0002 4.05737 13ZM7.72474 3.07895L8.68947 4.04916L6.24547 6.5L8.68947 8.95084L7.72474 9.92105L4.30368 6.5L7.72474 3.07895Z" fill="#495C81"/>
</svg>
