<svg width="250" height="43" viewBox="0 0 250 43" fill="none" xmlns="http://www.w3.org/2000/svg">
<path fill-rule="evenodd" clip-rule="evenodd" d="M67.5232 27.9626C67.4712 27.9128 67.43 27.8527 67.4023 27.7863C67.3746 27.7198 67.3609 27.6483 67.3621 27.5762V22.4623L61.9225 12.9383C61.8905 12.8578 61.8674 12.774 61.8536 12.6885C61.8521 12.6242 61.8646 12.5603 61.8902 12.5012C61.9158 12.4422 61.9539 12.3894 62.0019 12.3465C62.0919 12.2605 62.2113 12.2121 62.3357 12.2111H64.4018C64.6929 12.2111 64.9299 12.355 65.1127 12.643L68.9648 19.2347L72.8449 12.643C72.9132 12.5283 73.0028 12.4277 73.1087 12.3465C73.2307 12.2541 73.3807 12.2063 73.5336 12.2111H75.5998C75.6633 12.2094 75.7265 12.2205 75.7857 12.2438C75.8449 12.267 75.8987 12.302 75.9441 12.3465C75.9891 12.3912 76.0245 12.4445 76.0482 12.5033C76.0719 12.5621 76.0833 12.6251 76.0819 12.6885C76.0823 12.7765 76.0585 12.863 76.013 12.9383L70.5944 22.4623V27.5762C70.598 27.6502 70.5856 27.7241 70.558 27.7928C70.5304 27.8615 70.4882 27.9234 70.4345 27.9743C70.3211 28.0752 70.1729 28.1279 70.0212 28.1214H67.9084C67.8368 28.1222 67.7658 28.1085 67.6996 28.0813C67.6335 28.054 67.5734 28.0136 67.5232 27.9626ZM80.3483 27.9743C80.2156 27.8608 80.1133 27.7159 80.0507 27.5529L75.7317 17.0063C75.7141 16.9397 75.7066 16.8709 75.7095 16.8021C75.709 16.7367 75.7219 16.6719 75.7474 16.6117C75.7729 16.5514 75.8105 16.4971 75.8577 16.4519C75.9007 16.4062 75.9523 16.3697 76.0097 16.3444C76.0671 16.3191 76.1289 16.3057 76.1916 16.3048H78.0966C78.2335 16.2966 78.3691 16.3347 78.4815 16.4131C78.594 16.4915 78.6768 16.6055 78.7165 16.7367L81.7514 24.6685L84.7864 16.7367C84.8225 16.6217 84.8901 16.519 84.9814 16.4402C85.0932 16.3457 85.2367 16.2973 85.3829 16.3048H87.2879C87.3525 16.3032 87.4167 16.3155 87.4761 16.3409C87.5355 16.3662 87.5888 16.4041 87.6323 16.4519C87.7222 16.5461 87.7716 16.6718 87.77 16.8021C87.7729 16.8709 87.7654 16.9397 87.7479 17.0063L83.4545 27.5529C83.2864 27.9327 83.011 28.1222 82.6281 28.1214H80.876C80.6885 28.1337 80.5024 28.0818 80.3483 27.9743ZM90.3614 27.8832C89.7482 27.6026 89.2181 27.1679 88.8229 26.6214C88.455 26.112 88.2583 25.4988 88.2615 24.8704C88.2615 23.8393 88.6821 23.0059 89.5233 22.3701C90.3646 21.7343 91.5202 21.3024 92.9902 21.0744L96.1349 20.6191V20.1429C96.1349 19.4915 95.9664 18.9993 95.6295 18.6662C95.2925 18.3332 94.7571 18.1663 94.0233 18.1655C93.5174 18.1655 93.112 18.2565 92.8069 18.4386C92.5364 18.5935 92.2855 18.7804 92.0599 18.9954L91.6817 19.3701C91.6641 19.4481 91.6203 19.5178 91.5577 19.5675C91.495 19.6171 91.4173 19.6439 91.3373 19.6433H89.5467C89.4168 19.6441 89.2915 19.5952 89.1965 19.5067C89.1467 19.4607 89.1076 19.4043 89.0818 19.3417C89.056 19.279 89.0441 19.2114 89.0471 19.1437C89.0618 18.7647 89.2494 18.3367 89.6097 17.8596C89.97 17.3826 90.5249 16.9659 91.2743 16.6095C92.0237 16.253 92.9493 16.0752 94.0513 16.076C95.8583 16.076 97.1746 16.4776 98.0003 17.2807C98.8259 18.0838 99.2391 19.1371 99.2399 20.4405V27.5774C99.2417 27.6485 99.2294 27.7192 99.2037 27.7855C99.1781 27.8518 99.1396 27.9124 99.0905 27.9638C99.0387 28.0173 98.9761 28.0592 98.9069 28.0865C98.8376 28.1139 98.7633 28.1262 98.689 28.1225H96.7781C96.7056 28.1239 96.6335 28.1106 96.5663 28.0833C96.4991 28.056 96.4381 28.0153 96.387 27.9638C96.3354 27.9137 96.2946 27.8536 96.2671 27.7872C96.2396 27.7207 96.226 27.6493 96.2271 27.5774V26.6903C95.8601 27.2014 95.3703 27.6121 94.803 27.8844C94.1914 28.1957 93.4264 28.3513 92.5081 28.3513C91.7664 28.3592 91.0325 28.1992 90.3614 27.8832ZM95.354 25.349C95.8902 24.8043 96.1583 24.016 96.1583 22.9841V22.53L93.8622 22.8977C92.1019 23.1701 91.2221 23.7537 91.2229 24.6487C91.2154 24.8733 91.2678 25.0959 91.3747 25.2936C91.4815 25.4914 91.639 25.6571 91.8311 25.7739C92.2676 26.0458 92.775 26.1823 93.289 26.1661C94.1303 26.1661 94.8186 25.8938 95.354 25.349ZM101.891 27.9626C101.839 27.9128 101.798 27.8527 101.77 27.7863C101.742 27.7198 101.729 27.6483 101.73 27.5762V25.2802C101.729 25.2081 101.742 25.1366 101.77 25.0702C101.798 25.0037 101.839 24.9436 101.891 24.8938C101.942 24.8422 102.002 24.8015 102.069 24.7742C102.136 24.7469 102.208 24.7336 102.281 24.735H104.6C104.673 24.7336 104.744 24.7469 104.811 24.7742C104.879 24.8015 104.939 24.8422 104.99 24.8938C105.042 24.9436 105.083 25.0037 105.111 25.0702C105.139 25.1366 105.152 25.2081 105.151 25.2802V27.5762C105.154 27.7197 105.1 27.8585 105.002 27.9626C104.95 28.016 104.887 28.0578 104.818 28.0852C104.749 28.1125 104.675 28.1249 104.6 28.1214H102.284C102.211 28.1235 102.138 28.1104 102.07 28.0831C102.003 28.0558 101.941 28.0148 101.89 27.9626H101.891ZM109.057 27.8832C108.444 27.6026 107.914 27.1679 107.518 26.6214C107.15 26.112 106.954 25.4988 106.957 24.8704C106.957 23.8393 107.378 23.0059 108.219 22.3701C109.06 21.7343 110.216 21.3024 111.686 21.0744L114.83 20.6191V20.1429C114.83 19.4915 114.662 18.9993 114.326 18.6662C113.99 18.3332 113.454 18.1663 112.719 18.1655C112.213 18.1655 111.807 18.2565 111.502 18.4386C111.232 18.5935 110.981 18.7804 110.755 18.9954L110.377 19.3701C110.359 19.4491 110.315 19.5195 110.251 19.5693C110.187 19.6191 110.108 19.6453 110.027 19.6433H108.237C108.108 19.6441 107.982 19.5952 107.887 19.5067C107.838 19.4607 107.798 19.4043 107.773 19.3417C107.747 19.279 107.735 19.2114 107.738 19.1437C107.753 18.7647 107.94 18.3367 108.301 17.8596C108.661 17.3826 109.216 16.9659 109.965 16.6095C110.714 16.253 111.641 16.0752 112.743 16.076C114.549 16.076 115.865 16.4776 116.691 17.2807C117.518 18.0838 117.929 19.1367 117.926 20.4394V27.5762C117.928 27.6473 117.915 27.718 117.89 27.7843C117.864 27.8506 117.826 27.9112 117.777 27.9626C117.725 28.0162 117.662 28.058 117.593 28.0854C117.524 28.1128 117.449 28.125 117.375 28.1214H115.475C115.402 28.1229 115.33 28.1096 115.263 28.0823C115.196 28.055 115.136 28.0143 115.085 27.9626C115.033 27.9128 114.992 27.8527 114.964 27.7863C114.936 27.7198 114.923 27.6483 114.924 27.5762V26.6891C114.557 27.2 114.068 27.6106 113.501 27.8832C112.888 28.1945 112.123 28.3502 111.205 28.3502C110.462 28.359 109.727 28.1993 109.055 27.8832H109.057ZM114.049 25.349C114.584 24.8043 114.852 24.016 114.853 22.9841V22.53L112.556 22.8977C110.796 23.1701 109.916 23.7537 109.917 24.6487C109.91 24.8733 109.962 25.0959 110.069 25.2936C110.176 25.4914 110.333 25.6571 110.525 25.7739C110.961 26.0479 111.469 26.1864 111.983 26.172C112.825 26.1681 113.514 25.8938 114.049 25.349ZM120.63 14.2107C120.578 14.1606 120.537 14.1005 120.51 14.034C120.482 13.9676 120.468 13.8962 120.47 13.8243V12.1656C120.467 12.09 120.48 12.0146 120.507 11.9442C120.535 11.8737 120.576 11.8096 120.63 11.7558C120.68 11.7042 120.741 11.6634 120.809 11.6361C120.876 11.6088 120.948 11.5955 121.021 11.5971H123.132C123.208 11.5942 123.284 11.6068 123.355 11.6341C123.426 11.6614 123.491 11.7028 123.545 11.7558C123.599 11.8094 123.641 11.8734 123.669 11.9439C123.696 12.0144 123.709 12.0899 123.707 12.1656V13.8243C123.707 13.8973 123.692 13.9696 123.662 14.0363C123.632 14.103 123.589 14.1624 123.534 14.2107C123.426 14.314 123.282 14.371 123.132 14.3694H121.021C120.948 14.3709 120.876 14.3576 120.809 14.3304C120.741 14.3031 120.68 14.2623 120.63 14.2107ZM120.722 27.9626C120.67 27.9128 120.629 27.8527 120.601 27.7863C120.573 27.7198 120.559 27.6483 120.561 27.5762V16.8476C120.557 16.7736 120.57 16.6997 120.598 16.631C120.626 16.5623 120.668 16.5004 120.722 16.4495C120.828 16.3519 120.968 16.2992 121.112 16.3025H123.062C123.135 16.301 123.206 16.3144 123.273 16.3417C123.341 16.369 123.401 16.4096 123.452 16.4612C123.504 16.5111 123.545 16.5711 123.573 16.6376C123.601 16.7041 123.614 16.7756 123.613 16.8476V27.5762C123.614 27.6483 123.601 27.7198 123.573 27.7863C123.545 27.8527 123.504 27.9128 123.452 27.9626C123.401 28.0142 123.341 28.0549 123.273 28.0822C123.206 28.1095 123.135 28.1228 123.062 28.1214H121.11C121.039 28.1219 120.969 28.1081 120.903 28.0808C120.837 28.0535 120.778 28.0133 120.728 27.9626H120.722Z" fill="#103EB4"/>
<path d="M2.57506 18.4146C3.99723 18.4146 5.15013 17.2539 5.15013 15.8221C5.15013 14.3902 3.99723 13.2295 2.57506 13.2295C1.1529 13.2295 0 14.3902 0 15.8221C0 17.2539 1.1529 18.4146 2.57506 18.4146Z" fill="#103EB4"/>
<path opacity="0.8" d="M10.2994 11.8032C11.2948 11.8032 12.1017 10.9905 12.1017 9.988C12.1017 8.98552 11.2948 8.17285 10.2994 8.17285C9.30399 8.17285 8.49707 8.98552 8.49707 9.988C8.49707 10.9905 9.30399 11.8032 10.2994 11.8032Z" fill="#103EB4"/>
<path opacity="0.6" d="M18.023 11.9272C19.0184 11.9272 19.8253 11.1145 19.8253 10.112C19.8253 9.10955 19.0184 8.29688 18.023 8.29688C17.0276 8.29688 16.2207 9.10955 16.2207 10.112C16.2207 11.1145 17.0276 11.9272 18.023 11.9272Z" fill="#103EB4"/>
<path opacity="0.8" d="M18.023 16.8549C19.0184 16.8549 19.8253 16.0422 19.8253 15.0398C19.8253 14.0373 19.0184 13.2246 18.023 13.2246C17.0276 13.2246 16.2207 14.0373 16.2207 15.0398C16.2207 16.0422 17.0276 16.8549 18.023 16.8549Z" fill="#103EB4"/>
<path opacity="0.6" d="M25.7457 16.4511C26.7411 16.4511 27.548 15.6384 27.548 14.636C27.548 13.6335 26.7411 12.8208 25.7457 12.8208C24.7503 12.8208 23.9434 13.6335 23.9434 14.636C23.9434 15.6384 24.7503 16.4511 25.7457 16.4511Z" fill="#103EB4"/>
<path opacity="0.8" d="M25.7457 21.5624C26.7411 21.5624 27.548 20.7498 27.548 19.7473C27.548 18.7448 26.7411 17.9321 25.7457 17.9321C24.7503 17.9321 23.9434 18.7448 23.9434 19.7473C23.9434 20.7498 24.7503 21.5624 25.7457 21.5624Z" fill="#103EB4"/>
<path opacity="0.6" d="M41.1939 16.8583C42.1893 16.8583 42.9962 16.0457 42.9962 15.0432C42.9962 14.0407 42.1893 13.228 41.1939 13.228C40.1985 13.228 39.3916 14.0407 39.3916 15.0432C39.3916 16.0457 40.1985 16.8583 41.1939 16.8583Z" fill="#103EB4"/>
<path opacity="0.8" d="M33.4703 27.3578C34.4657 27.3578 35.2726 26.5452 35.2726 25.5427C35.2726 24.5402 34.4657 23.7275 33.4703 23.7275C32.4749 23.7275 31.668 24.5402 31.668 25.5427C31.668 26.5452 32.4749 27.3578 33.4703 27.3578Z" fill="#103EB4"/>
<path opacity="0.8" d="M41.1939 22.1728C42.1893 22.1728 42.9962 21.3601 42.9962 20.3576C42.9962 19.3552 42.1893 18.5425 41.1939 18.5425C40.1985 18.5425 39.3916 19.3552 39.3916 20.3576C39.3916 21.3601 40.1985 22.1728 41.1939 22.1728Z" fill="#103EB4"/>
<path opacity="0.8" d="M48.9166 17.0868C49.912 17.0868 50.7189 16.2742 50.7189 15.2717C50.7189 14.2692 49.912 13.4565 48.9166 13.4565C47.9212 13.4565 47.1143 14.2692 47.1143 15.2717C47.1143 16.2742 47.9212 17.0868 48.9166 17.0868Z" fill="#103EB4"/>
<path opacity="0.8" d="M18.023 28.2641C19.0184 28.2641 19.8253 27.4514 19.8253 26.4489C19.8253 25.4465 19.0184 24.6338 18.023 24.6338C17.0276 24.6338 16.2207 25.4465 16.2207 26.4489C16.2207 27.4514 17.0276 28.2641 18.023 28.2641Z" fill="#103EB4"/>
<path opacity="0.8" d="M25.7457 33.3393C26.7411 33.3393 27.548 32.5266 27.548 31.5241C27.548 30.5217 26.7411 29.709 25.7457 29.709C24.7503 29.709 23.9434 30.5217 23.9434 31.5241C23.9434 32.5266 24.7503 33.3393 25.7457 33.3393Z" fill="#103EB4"/>
<path opacity="0.6" d="M25.7457 38.4496C26.7411 38.4496 27.548 37.637 27.548 36.6345C27.548 35.632 26.7411 34.8193 25.7457 34.8193C24.7503 34.8193 23.9434 35.632 23.9434 36.6345C23.9434 37.637 24.7503 38.4496 25.7457 38.4496Z" fill="#103EB4"/>
<path d="M10.2987 18.4146C11.7209 18.4146 12.8738 17.2539 12.8738 15.8221C12.8738 14.3902 11.7209 13.2295 10.2987 13.2295C8.87653 13.2295 7.72363 14.3902 7.72363 15.8221C7.72363 17.2539 8.87653 18.4146 10.2987 18.4146Z" fill="#103EB4"/>
<path d="M18.0233 23.3365C19.4455 23.3365 20.5984 22.1758 20.5984 20.7439C20.5984 19.3121 19.4455 18.1514 18.0233 18.1514C16.6011 18.1514 15.4482 19.3121 15.4482 20.7439C15.4482 22.1758 16.6011 23.3365 18.0233 23.3365Z" fill="#103EB4"/>
<path d="M25.746 28.2276C27.1681 28.2276 28.321 27.0669 28.321 25.6351C28.321 24.2032 27.1681 23.0425 25.746 23.0425C24.3238 23.0425 23.1709 24.2032 23.1709 25.6351C23.1709 27.0669 24.3238 28.2276 25.746 28.2276Z" fill="#103EB4"/>
<path d="M33.4696 33.9683C34.8918 33.9683 36.0447 32.8076 36.0447 31.3758C36.0447 29.9439 34.8918 28.7832 33.4696 28.7832C32.0474 28.7832 30.8945 29.9439 30.8945 31.3758C30.8945 32.8076 32.0474 33.9683 33.4696 33.9683Z" fill="#103EB4"/>
<path d="M41.1942 29.0421C42.6164 29.0421 43.7693 27.8813 43.7693 26.4495C43.7693 25.0177 42.6164 23.8569 41.1942 23.8569C39.772 23.8569 38.6191 25.0177 38.6191 26.4495C38.6191 27.8813 39.772 29.0421 41.1942 29.0421Z" fill="#103EB4"/>
<path d="M48.9169 23.5982C50.339 23.5982 51.4919 22.4375 51.4919 21.0057C51.4919 19.5738 50.339 18.4131 48.9169 18.4131C47.4947 18.4131 46.3418 19.5738 46.3418 21.0057C46.3418 22.4375 47.4947 23.5982 48.9169 23.5982Z" fill="#103EB4"/>
<path opacity="0.4" d="M18.0229 7.00118C18.8758 7.00118 19.5672 6.30453 19.5672 5.44517C19.5672 4.58581 18.8758 3.88916 18.0229 3.88916C17.1699 3.88916 16.4785 4.58581 16.4785 5.44517C16.4785 6.30453 17.1699 7.00118 18.0229 7.00118Z" fill="#103EB4"/>
<path opacity="0.4" d="M25.7465 11.3405C26.5994 11.3405 27.2908 10.6439 27.2908 9.78453C27.2908 8.92517 26.5994 8.22852 25.7465 8.22852C24.8936 8.22852 24.2021 8.92517 24.2021 9.78453C24.2021 10.6439 24.8936 11.3405 25.7465 11.3405Z" fill="#103EB4"/>
<path opacity="0.4" d="M41.1937 11.5446C42.0467 11.5446 42.7381 10.848 42.7381 9.98863C42.7381 9.12927 42.0467 8.43262 41.1937 8.43262C40.3408 8.43262 39.6494 9.12927 39.6494 9.98863C39.6494 10.848 40.3408 11.5446 41.1937 11.5446Z" fill="#103EB4"/>
<path opacity="0.6" d="M48.9508 12.1301C49.6625 12.1301 50.2395 11.5532 50.2395 10.8414C50.2395 10.1297 49.6625 9.55273 48.9508 9.55273C48.2391 9.55273 47.6621 10.1297 47.6621 10.8414C47.6621 11.5532 48.2391 12.1301 48.9508 12.1301Z" fill="#103EB4"/>
<path opacity="0.3" d="M18.0231 2.59141C18.7348 2.59141 19.3118 2.0113 19.3118 1.2957C19.3118 0.580107 18.7348 0 18.0231 0C17.3113 0 16.7344 0.580107 16.7344 1.2957C16.7344 2.0113 17.3113 2.59141 18.0231 2.59141Z" fill="#103EB4"/>
<path opacity="0.3" d="M25.7457 6.74668C26.4575 6.74668 27.0344 6.16657 27.0344 5.45098C27.0344 4.73538 26.4575 4.15527 25.7457 4.15527C25.034 4.15527 24.457 4.73538 24.457 5.45098C24.457 6.16657 25.034 6.74668 25.7457 6.74668Z" fill="#103EB4"/>
<path opacity="0.4" d="M25.7457 42.5226C26.4575 42.5226 27.0344 41.9424 27.0344 41.2269C27.0344 40.5113 26.4575 39.9312 25.7457 39.9312C25.034 39.9312 24.457 40.5113 24.457 41.2269C24.457 41.9424 25.034 42.5226 25.7457 42.5226Z" fill="#103EB4"/>
<path opacity="0.6" d="M18.0231 32.1539C18.7348 32.1539 19.3118 31.5738 19.3118 30.8582C19.3118 30.1426 18.7348 29.5625 18.0231 29.5625C17.3113 29.5625 16.7344 30.1426 16.7344 30.8582C16.7344 31.5738 17.3113 32.1539 18.0231 32.1539Z" fill="#103EB4"/>
<path opacity="0.6" d="M10.2994 6.74668C11.0112 6.74668 11.5881 6.16657 11.5881 5.45098C11.5881 4.73538 11.0112 4.15527 10.2994 4.15527C9.58771 4.15527 9.01074 4.73538 9.01074 5.45098C9.01074 6.16657 9.58771 6.74668 10.2994 6.74668Z" fill="#103EB4"/>
<path opacity="0.6" d="M2.60706 12.2081C3.31879 12.2081 3.89576 11.628 3.89576 10.9124C3.89576 10.1968 3.31879 9.6167 2.60706 9.6167C1.89533 9.6167 1.31836 10.1968 1.31836 10.9124C1.31836 11.628 1.89533 12.2081 2.60706 12.2081Z" fill="#103EB4"/>
<path opacity="0.6" d="M2.56018 22.1578C3.27191 22.1578 3.84888 21.5777 3.84888 20.8621C3.84888 20.1465 3.27191 19.5664 2.56018 19.5664C1.84845 19.5664 1.27148 20.1465 1.27148 20.8621C1.27148 21.5777 1.84845 22.1578 2.56018 22.1578Z" fill="#103EB4"/>
<path opacity="0.3" d="M41.194 6.74668C41.9057 6.74668 42.4827 6.16657 42.4827 5.45098C42.4827 4.73538 41.9057 4.15527 41.194 4.15527C40.4822 4.15527 39.9053 4.73538 39.9053 5.45098C39.9053 6.16657 40.4822 6.74668 41.194 6.74668Z" fill="#103EB4"/>
<path opacity="0.6" d="M33.4703 22.3014C34.1821 22.3014 34.759 21.7213 34.759 21.0057C34.759 20.2901 34.1821 19.71 33.4703 19.71C32.7586 19.71 32.1816 20.2901 32.1816 21.0057C32.1816 21.7213 32.7586 22.3014 33.4703 22.3014Z" fill="#103EB4"/>
<path d="M156.04 28.1597H154.694L153.348 24.6532H146.147L144.803 28.1597H143.456L149.025 13.8979H150.473L156.04 28.1597ZM152.962 23.5353L149.738 15.1963L146.54 23.5353H152.962Z" fill="#103EB4"/>
<path d="M163.058 28.1599C161.466 28.1599 160.178 27.6366 159.193 26.5898C158.208 25.5431 157.716 24.2451 157.718 22.6959C157.718 21.1451 158.209 19.851 159.193 18.8136C160.176 17.7761 161.465 17.2562 163.058 17.2539C164.664 17.2539 165.96 17.842 166.946 19.0183L166.127 19.7056C165.793 19.2481 165.344 18.8767 164.819 18.6251C164.295 18.3735 163.713 18.2496 163.125 18.2646C161.867 18.2646 160.863 18.6841 160.114 19.523C159.364 20.362 158.988 21.4196 158.988 22.6959C158.988 23.9729 159.363 25.034 160.114 25.8792C160.864 26.7243 161.868 27.1477 163.125 27.1492C164.369 27.1492 165.369 26.6615 166.127 25.6861L166.946 26.3746C165.96 27.5641 164.664 28.1592 163.058 28.1599Z" fill="#103EB4"/>
<path d="M177.013 27.9027H175.881V26.676C174.966 27.6651 173.775 28.1596 172.307 28.1596C171.363 28.172 170.448 27.8409 169.735 27.2295C168.994 26.6094 168.624 25.7672 168.624 24.703C168.624 23.6287 168.991 22.7865 169.725 22.1765C170.444 21.5723 171.362 21.2474 172.307 21.2626C173.789 21.2626 174.98 21.7571 175.881 22.7462V20.6336C175.881 19.8887 175.612 19.3043 175.074 18.8803C174.536 18.4563 173.86 18.2451 173.047 18.2466C171.755 18.2466 170.658 18.7555 169.758 19.7732L169.125 18.9989C169.633 18.4375 170.259 17.991 170.958 17.69C171.658 17.389 172.415 17.2406 173.178 17.2548C174.312 17.2548 175.234 17.5343 175.946 18.0931C176.657 18.652 177.013 19.4837 177.013 20.5882V27.9027ZM172.698 27.2795C174.079 27.2795 175.14 26.8063 175.88 25.8598V23.581C175.123 22.6206 174.063 22.14 172.698 22.1393C171.842 22.1393 171.149 22.383 170.618 22.8706C170.359 23.1048 170.154 23.3911 170.016 23.7103C169.879 24.0294 169.813 24.3739 169.822 24.7204C169.812 25.0653 169.878 25.4083 170.015 25.7257C170.153 26.0431 170.358 26.3272 170.618 26.5586C171.149 27.0384 171.842 27.2783 172.698 27.2783V27.2795Z" fill="#103EB4"/>
<path d="M189.596 27.9086H188.476V26.2903C188.083 26.8478 187.567 27.3079 186.967 27.6349C186.345 27.9834 185.643 28.1643 184.929 28.1596C183.564 28.1596 182.462 27.6766 181.625 26.7105C180.788 25.7444 180.369 24.4573 180.369 22.8492C180.369 21.2525 180.792 19.9654 181.636 18.988C182.481 18.0106 183.579 17.5203 184.93 17.5173C186.395 17.5173 187.577 18.1476 188.477 19.4082V13.8979H189.597L189.596 27.9086ZM185.12 27.1739C185.809 27.174 186.487 26.9926 187.083 26.648C187.65 26.3467 188.13 25.9056 188.476 25.367V20.3474C188.134 19.7975 187.654 19.3452 187.083 19.0346C186.489 18.6844 185.811 18.4993 185.12 18.4985C184.021 18.4985 183.152 18.9081 182.512 19.7273C181.872 20.5465 181.552 21.5864 181.551 22.847C181.551 24.106 181.871 25.1421 182.512 25.9553C183.153 26.7684 184.022 27.1742 185.12 27.1727V27.1739Z" fill="#103EB4"/>
<path d="M197.399 28.1599C195.855 28.1599 194.588 27.651 193.598 26.633C192.609 25.615 192.114 24.3028 192.114 22.6964C192.114 21.1776 192.598 19.8906 193.567 18.8354C194.019 18.3263 194.578 17.921 195.206 17.6479C195.834 17.3749 196.516 17.2407 197.202 17.2549C198.746 17.2549 199.962 17.7817 200.849 18.8354C201.737 19.889 202.181 21.1977 202.181 22.7615V23.0627H193.359C193.416 24.2389 193.817 25.2208 194.56 26.0085C195.303 26.7962 196.278 27.1908 197.486 27.1924C198.884 27.1924 200.034 26.7117 200.937 25.7503L201.527 26.4818C200.435 27.6006 199.059 28.1599 197.399 28.1599ZM201.024 22.18C201.011 21.1825 200.653 20.2191 200.009 19.4494C199.347 18.6315 198.402 18.2225 197.175 18.2225C196.024 18.2225 195.11 18.6276 194.433 19.4378C193.773 20.2076 193.392 21.1729 193.353 22.18H201.024Z" fill="#103EB4"/>
<path d="M218.954 28.1599H217.841V20.7146C217.841 19.0998 217.148 18.292 215.764 18.2912C215.174 18.306 214.6 18.489 214.105 18.8199C213.581 19.1336 213.137 19.5717 212.81 20.0977V28.1599H211.672V20.7146C211.672 19.0998 210.98 18.292 209.595 18.2912C209.068 18.2912 208.525 18.471 207.968 18.8306C207.443 19.16 206.991 19.599 206.641 20.1192V28.1599H205.537V17.5207H206.651V19.1283C206.908 18.7036 207.361 18.2852 208.01 17.8732C208.6 17.4801 209.287 17.2663 209.99 17.2563C210.746 17.2563 211.353 17.4472 211.81 17.8291C212.254 18.1914 212.569 18.6934 212.709 19.2582C213.023 18.7294 213.501 18.2634 214.143 17.8601C214.739 17.4703 215.429 17.2603 216.134 17.2539C218.017 17.2539 218.959 18.3332 218.96 20.4919L218.954 28.1599Z" fill="#103EB4"/>
<path d="M221.547 32.198L221.74 31.1314C222.027 31.2553 222.335 31.3159 222.646 31.3094C223.35 31.3094 223.875 30.8717 224.22 29.9963L225.035 28.0844L220.638 17.2539H221.888L225.682 26.6331L229.433 17.2539H230.705L225.316 30.3523C224.772 31.687 223.881 32.3543 222.643 32.3543C222.272 32.3585 221.903 32.3059 221.547 32.198Z" fill="#103EB4"/>
<path d="M243.289 10.5425C241.961 10.5425 240.664 10.9607 239.56 11.7442C238.456 12.5278 237.596 13.6415 237.088 14.9445C236.58 16.2475 236.447 17.6813 236.706 19.0645C236.965 20.4478 237.604 21.7184 238.543 22.7156C239.481 23.7129 240.677 24.3921 241.979 24.6672C243.281 24.9424 244.631 24.8011 245.857 24.2614C247.083 23.7217 248.131 22.8077 248.869 21.6351C249.606 20.4624 250 19.0837 250 17.6734C250 15.7821 249.293 13.9684 248.034 12.6311C246.776 11.2938 245.069 10.5425 243.289 10.5425ZM245.554 19.2779C245.554 19.83 244.38 20.0808 243.289 20.0808C242.197 20.0808 241.023 19.8337 241.023 19.2779V17.4621L243.161 18.1353C243.245 18.1616 243.334 18.1616 243.418 18.1353L245.554 17.4621V19.2779ZM247.414 16.5431L246.617 16.7902V19.1124C246.653 19.1127 246.687 19.1264 246.714 19.151C246.742 19.1756 246.76 19.2096 246.766 19.247L246.917 20.2092C246.923 20.2513 246.914 20.2944 246.891 20.329C246.867 20.3637 246.832 20.3873 246.792 20.3945H246.767H246.164C246.123 20.3945 246.085 20.3776 246.057 20.3475C246.028 20.3174 246.012 20.2765 246.012 20.2339C246.011 20.2249 246.011 20.2158 246.012 20.2068L246.164 19.2445C246.169 19.2069 246.187 19.1726 246.214 19.1479C246.242 19.1232 246.277 19.1097 246.312 19.1099V16.8865L243.334 17.824C243.306 17.8327 243.276 17.8327 243.248 17.824L239.17 16.5394C239.139 16.5295 239.111 16.5092 239.092 16.4815C239.072 16.4538 239.062 16.4202 239.062 16.3856C239.062 16.3511 239.072 16.3175 239.092 16.2898C239.111 16.2621 239.139 16.2418 239.17 16.2319L243.248 14.9485C243.276 14.9398 243.306 14.9398 243.334 14.9485L247.412 16.2319C247.443 16.2418 247.471 16.2621 247.49 16.2898C247.509 16.3175 247.52 16.3511 247.52 16.3856C247.52 16.4202 247.509 16.4538 247.49 16.4815C247.471 16.5092 247.443 16.5295 247.412 16.5394L247.414 16.5431Z" fill="#103EB4"/>
<path d="M135.067 10.5425H134.229V28.9989H135.067V10.5425Z" fill="#103EB4"/>
</svg>
