<svg width="43" height="43" viewBox="0 0 43 43" fill="none" xmlns="http://www.w3.org/2000/svg">
<path d="M21.5 0C21.5 0 21.5 0 21.5 0C17.2477 0 13.0909 1.26095 9.55525 3.6234C6.01959 5.98585 3.26388 9.34369 1.6366 13.2723C0.00931554 17.2009 -0.416456 21.5238 0.413126 25.6944C1.24271 29.865 3.29038 33.696 6.29721 36.7028C9.30404 39.7096 13.135 41.7573 17.3056 42.5869C21.4762 43.4165 25.7991 42.9907 29.7277 41.3634C33.6563 39.7361 37.0141 36.9804 39.3766 33.4448C41.739 29.9091 43 25.7523 43 21.5C43 15.7978 40.7348 10.3292 36.7028 6.2972C32.6708 2.26517 27.2022 0 21.5 0C21.5 0 21.5 0 21.5 0ZM28.3834 22.0818L17.9759 28.0906C17.8738 28.1496 17.7579 28.1806 17.64 28.1806C17.5221 28.1806 17.4062 28.1496 17.3041 28.0906C17.2019 28.0317 17.1171 27.9469 17.0582 27.8447C16.9992 27.7426 16.9681 27.6267 16.9681 27.5088V15.4912C16.9681 15.3732 16.9991 15.2574 17.0581 15.1552C17.1171 15.053 17.2019 14.9682 17.304 14.9092C17.4062 14.8502 17.522 14.8192 17.64 14.8192C17.7579 14.8192 17.8738 14.8502 17.9759 14.9092L28.3834 20.9182C28.4856 20.9772 28.5704 21.062 28.6293 21.1641C28.6883 21.2662 28.7193 21.3821 28.7193 21.5C28.7193 21.6179 28.6883 21.7338 28.6293 21.8359C28.5704 21.938 28.4856 22.0228 28.3834 22.0818Z" fill="#24B6AC"/>
<path d="M21.5 0C21.5 0 21.5 0 21.5 0C17.2477 0 13.0909 1.26095 9.55525 3.6234C6.01959 5.98585 3.26388 9.34369 1.6366 13.2723C0.00931554 17.2009 -0.416456 21.5238 0.413126 25.6944C1.24271 29.865 3.29038 33.696 6.29721 36.7028C9.30404 39.7096 13.135 41.7573 17.3056 42.5869C21.4762 43.4165 25.7991 42.9907 29.7277 41.3634C33.6563 39.7361 37.0141 36.9804 39.3766 33.4448C41.739 29.9091 43 25.7523 43 21.5C43 15.7978 40.7348 10.3292 36.7028 6.2972C32.6708 2.26517 27.2022 0 21.5 0C21.5 0 21.5 0 21.5 0ZM28.3834 22.0818L17.9759 28.0906C17.8738 28.1496 17.7579 28.1806 17.64 28.1806C17.5221 28.1806 17.4062 28.1496 17.3041 28.0906C17.2019 28.0317 17.1171 27.9469 17.0582 27.8447C16.9992 27.7426 16.9681 27.6267 16.9681 27.5088V15.4912C16.9681 15.3732 16.9991 15.2574 17.0581 15.1552C17.1171 15.053 17.2019 14.9682 17.304 14.9092C17.4062 14.8502 17.522 14.8192 17.64 14.8192C17.7579 14.8192 17.8738 14.8502 17.9759 14.9092L28.3834 20.9182C28.4856 20.9772 28.5704 21.062 28.6293 21.1641C28.6883 21.2662 28.7193 21.3821 28.7193 21.5C28.7193 21.6179 28.6883 21.7338 28.6293 21.8359C28.5704 21.938 28.4856 22.0228 28.3834 22.0818Z" fill="#1A41AD"/>
</svg>
