<svg width="13" height="13" viewBox="0 0 13 13" fill="none" xmlns="http://www.w3.org/2000/svg">
<path d="M8.94263 2.30939e-07H4.05737C3.5245 -0.000179581 2.99681 0.104645 2.50447 0.308483C2.01212 0.512321 1.56477 0.811178 1.18797 1.18797C0.811178 1.56477 0.512321 2.01212 0.308483 2.50447C0.104645 2.99681 -0.000179581 3.5245 2.30939e-07 4.05737V8.94263C-0.000179581 9.4755 0.104645 10.0032 0.308483 10.4955C0.512321 10.9879 0.811178 11.4352 1.18797 11.812C1.56477 12.1888 2.01212 12.4877 2.50447 12.6915C2.99681 12.8954 3.5245 13.0002 4.05737 13H8.94263C9.4755 13.0002 10.0032 12.8954 10.4955 12.6915C10.9879 12.4877 11.4352 12.1888 11.812 11.812C12.1888 11.4352 12.4877 10.9879 12.6915 10.4955C12.8954 10.0032 13.0002 9.4755 13 8.94263V4.05737C13.0002 3.5245 12.8954 2.99681 12.6915 2.50447C12.4877 2.01212 12.1888 1.56477 11.812 1.18797C11.4352 0.811178 10.9879 0.512321 10.4955 0.308483C10.0032 0.104645 9.4755 -0.000179581 8.94263 2.30939e-07ZM5.27526 9.92105L4.31053 8.95084L6.75453 6.5L4.31053 4.04916L5.27526 3.07895L8.69632 6.5L5.27526 9.92105Z" fill="#495C81"/>
</svg>
