<svg width="98" height="98" viewBox="0 0 98 98" fill="none" xmlns="http://www.w3.org/2000/svg">
<path d="M49 0C39.3087 0 29.8351 2.8738 21.7771 8.25799C13.7191 13.6422 7.43862 21.2949 3.72992 30.2485C0.0212309 39.2021 -0.949132 49.0543 0.941543 58.5594C2.83222 68.0645 7.49902 76.7954 14.3518 83.6482C21.2046 90.501 29.9355 95.1678 39.4406 97.0585C48.9457 98.9491 58.7979 97.9788 67.7515 94.2701C76.7051 90.5614 84.3578 84.2809 89.742 76.2229C95.1262 68.1649 98 58.6913 98 49C98 36.0044 92.8375 23.541 83.6482 14.3518C74.459 5.16248 61.9956 0 49 0V0ZM64.6879 50.326L40.9684 64.0205C40.7357 64.1549 40.4716 64.2257 40.2028 64.2257C39.934 64.2257 39.67 64.1549 39.4372 64.0205C39.2044 63.8861 39.0111 63.6929 38.8767 63.4601C38.7423 63.2273 38.6716 62.9633 38.6716 62.6945V35.3055C38.6715 35.0367 38.7422 34.7726 38.8766 34.5398C39.011 34.3069 39.2043 34.1136 39.4371 33.9792C39.6698 33.8447 39.9339 33.774 40.2027 33.774C40.4715 33.7739 40.7356 33.8447 40.9684 33.9791L64.6879 47.674C64.9206 47.8084 65.1138 48.0017 65.2482 48.2345C65.3826 48.4672 65.4533 48.7312 65.4533 49C65.4533 49.2687 65.3826 49.5328 65.2482 49.7655C65.1138 49.9983 64.9206 50.1916 64.6879 50.326Z" fill="white"/>
</svg>
